<svg id="svg" version="1.1" xmlns="http://www.w3.org/2000/svg" xmlns:xlink="http://www.w3.org/1999/xlink" width="400" height="400" viewBox="0, 0, 400,400"><g id="svgg"><path id="path0" d="M134.000 109.372 C 127.053 111.305,124.200 115.448,124.200 123.600 C 124.200 133.134,128.510 137.967,137.338 138.335 C 147.466 138.757,153.174 132.899,152.731 122.538 C 152.307 112.601,143.824 106.639,134.000 109.372 M237.600 109.388 C 231.830 111.042,228.929 114.249,227.774 120.253 C 225.193 133.665,237.258 142.794,249.519 136.708 C 256.814 133.087,258.817 120.341,253.168 113.487 C 250.011 109.658,243.051 107.825,237.600 109.388 M79.342 109.807 C 79.059 110.544,79.011 110.324,81.591 120.200 C 82.740 124.600,84.220 130.360,84.880 133.000 C 86.256 138.505,86.154 138.388,89.600 138.388 C 92.922 138.388,92.988 138.334,93.779 135.000 C 95.260 128.759,96.000 125.634,96.780 122.329 C 97.231 120.420,97.606 118.530,97.613 118.129 C 97.626 117.380,98.488 116.000,98.944 116.000 C 99.085 116.000,99.200 116.474,99.200 117.054 C 99.200 117.633,99.372 118.758,99.583 119.554 C 100.000 121.131,101.067 125.658,102.423 131.600 C 103.990 138.465,103.801 138.181,106.908 138.318 C 110.031 138.456,111.033 138.044,111.299 136.511 C 111.406 135.900,112.340 132.160,113.375 128.200 C 118.865 107.204,118.626 109.200,115.649 109.200 C 112.705 109.200,112.603 109.326,111.549 114.243 C 111.082 116.419,110.561 118.830,110.390 119.600 C 110.220 120.370,109.864 121.990,109.600 123.200 C 109.336 124.410,108.954 126.120,108.751 127.000 C 108.549 127.880,108.273 129.275,108.139 130.100 C 107.868 131.761,106.920 132.141,106.642 130.700 C 105.635 125.476,105.097 123.066,102.533 112.294 C 101.798 109.206,101.601 109.080,97.824 109.278 L 95.480 109.400 95.000 111.200 C 94.292 113.855,91.717 124.977,90.762 129.500 C 89.932 133.435,89.684 132.952,87.572 123.300 C 87.367 122.365,87.033 120.835,86.828 119.900 C 86.623 118.965,86.272 117.390,86.048 116.400 C 85.823 115.410,85.416 113.610,85.144 112.400 C 84.872 111.190,84.481 109.975,84.276 109.700 C 83.715 108.950,79.637 109.038,79.342 109.807 M161.500 109.420 C 161.335 109.592,161.200 116.074,161.200 123.824 C 161.200 139.494,160.990 138.400,164.000 138.400 C 166.851 138.400,166.800 138.507,166.800 132.557 L 166.800 127.200 170.581 127.200 L 174.362 127.200 175.503 128.900 C 176.130 129.835,177.624 132.252,178.822 134.272 C 181.158 138.211,181.407 138.386,184.676 138.395 C 187.579 138.402,187.575 138.377,183.581 132.171 C 179.496 125.822,179.530 125.931,181.387 125.259 C 187.992 122.871,187.445 112.308,180.600 110.066 C 178.792 109.473,161.993 108.906,161.500 109.420 M195.067 109.467 C 194.920 109.613,194.800 116.074,194.800 123.824 C 194.800 139.494,194.590 138.400,197.600 138.400 C 200.438 138.400,200.400 138.476,200.400 132.832 C 200.400 127.803,200.412 127.739,201.500 126.724 C 203.274 125.069,204.377 124.623,204.933 125.338 C 205.190 125.668,206.209 126.987,207.197 128.269 C 215.110 138.532,214.971 138.403,218.133 138.394 C 221.606 138.384,221.604 138.379,214.768 129.810 C 211.266 125.420,208.400 121.613,208.400 121.350 C 208.400 121.087,210.947 118.452,214.061 115.496 C 220.291 109.579,220.450 109.200,216.704 109.200 L 214.255 109.200 207.812 115.600 C 204.269 119.120,201.151 122.000,200.885 122.000 C 200.526 122.000,200.400 120.399,200.400 115.843 C 200.400 110.597,200.306 109.650,199.767 109.443 C 198.914 109.115,195.400 109.133,195.067 109.467 M264.900 109.465 C 264.356 109.685,264.168 125.410,264.661 129.514 C 265.370 135.421,269.246 138.200,276.774 138.200 C 287.552 138.200,289.687 134.976,289.507 118.972 L 289.400 109.400 286.800 109.400 L 284.200 109.400 283.995 119.400 C 283.868 125.573,283.616 129.783,283.335 130.400 C 281.156 135.193,273.389 135.642,270.919 131.118 C 270.293 129.970,270.183 128.511,270.068 119.804 C 269.975 112.732,269.800 109.721,269.468 109.510 C 268.950 109.180,265.686 109.148,264.900 109.465 M296.178 110.146 C 296.046 110.672,295.997 111.620,296.069 112.252 L 296.200 113.400 300.894 113.513 L 305.588 113.625 305.694 125.913 L 305.800 138.200 308.400 138.200 L 311.000 138.200 311.106 125.913 L 311.212 113.625 315.906 113.513 L 320.600 113.400 320.600 111.400 L 320.600 109.400 308.509 109.294 L 296.418 109.188 296.178 110.146 M143.031 114.419 C 149.860 118.640,148.003 132.294,140.369 133.999 C 133.021 135.639,127.499 127.886,129.995 119.435 C 131.586 114.049,138.271 111.477,143.031 114.419 M246.389 114.194 C 251.499 116.837,252.259 127.943,247.617 132.137 C 240.347 138.705,230.695 130.036,233.606 119.553 C 235.079 114.252,241.387 111.607,246.389 114.194 M177.804 114.002 C 179.546 114.664,180.130 115.552,180.319 117.825 C 180.651 121.827,178.429 122.971,170.800 122.723 L 167.000 122.600 166.885 118.628 C 166.821 116.444,166.861 114.419,166.972 114.128 C 167.221 113.479,176.154 113.374,177.804 114.002 M337.396 205.380 C 330.546 207.060,326.969 211.284,327.048 217.600 C 327.151 225.713,330.874 228.656,344.800 231.631 C 352.753 233.330,356.042 235.521,355.981 239.080 C 355.838 247.420,336.736 247.997,334.231 239.737 C 333.897 238.636,333.113 238.341,331.711 238.788 C 331.100 238.983,329.585 239.256,328.345 239.394 C 324.814 239.789,324.530 240.166,325.724 242.868 C 328.671 249.530,334.217 252.183,345.200 252.183 C 358.783 252.183,364.808 247.892,364.796 238.229 C 364.787 230.841,361.082 227.398,350.400 224.853 C 348.530 224.408,345.740 223.744,344.200 223.378 C 338.301 221.977,335.999 220.210,336.001 217.086 C 336.008 209.563,351.590 208.808,354.398 216.194 C 354.643 216.840,355.009 217.065,355.671 216.977 C 356.182 216.909,358.183 216.631,360.117 216.359 L 363.634 215.866 363.374 214.633 C 362.406 210.042,358.722 206.676,353.228 205.362 C 350.428 204.692,340.154 204.703,337.396 205.380 M37.001 205.654 C 36.886 205.954,36.839 216.460,36.896 229.000 L 37.000 251.800 48.400 251.915 C 60.592 252.039,65.108 251.693,69.037 250.338 C 80.609 246.344,81.013 231.192,69.625 228.278 C 67.003 227.607,67.006 227.268,69.651 225.908 C 78.408 221.406,76.705 209.720,66.805 206.378 C 63.494 205.261,37.394 204.626,37.001 205.654 M90.679 205.454 C 90.072 206.061,90.368 235.795,91.011 238.852 C 92.982 248.220,98.889 252.235,110.600 252.167 C 120.368 252.111,126.109 249.153,129.171 242.600 C 131.090 238.494,131.248 236.695,131.119 220.400 L 131.000 205.400 126.400 205.400 L 121.800 205.400 121.600 221.400 L 121.400 237.400 120.290 239.660 C 116.648 247.077,104.484 247.063,101.050 239.637 C 100.240 237.886,100.191 237.046,100.000 221.600 L 99.800 205.400 95.379 205.288 C 92.947 205.226,90.832 205.301,90.679 205.454 M145.011 206.044 C 144.883 206.570,144.829 217.080,144.889 229.400 L 145.000 251.800 153.000 251.923 C 165.397 252.114,170.700 251.380,175.533 248.803 C 188.096 242.107,190.380 221.118,179.638 211.074 C 174.836 206.583,171.028 205.637,156.522 205.328 L 145.243 205.088 145.011 206.044 M199.406 205.641 C 199.289 205.948,199.239 216.460,199.296 229.000 L 199.400 251.800 207.000 251.920 C 231.390 252.307,240.068 246.044,240.143 228.000 C 240.192 216.232,234.744 208.811,224.107 206.155 C 220.677 205.299,199.704 204.862,199.406 205.641 M253.700 205.458 C 253.308 205.622,253.200 210.636,253.200 228.626 L 253.200 251.585 254.100 251.810 C 254.595 251.934,256.620 251.982,258.600 251.918 L 262.200 251.800 262.200 228.600 L 262.200 205.400 258.200 205.325 C 256.000 205.283,253.975 205.343,253.700 205.458 M276.985 205.696 C 276.879 205.973,276.839 216.460,276.896 229.000 L 277.000 251.800 295.600 251.800 L 314.200 251.800 314.315 248.305 L 314.431 244.810 300.515 244.705 L 286.600 244.600 286.490 238.306 L 286.380 232.012 298.690 231.906 L 311.000 231.800 311.116 228.300 L 311.231 224.800 298.816 224.800 L 286.400 224.800 286.400 218.600 L 286.400 212.400 299.816 212.400 L 313.231 212.400 313.116 208.900 L 313.000 205.400 295.089 205.296 C 280.974 205.214,277.137 205.299,276.985 205.696 M61.497 212.607 C 64.474 213.491,65.600 214.983,65.600 218.045 C 65.600 223.144,63.907 224.000,53.816 224.000 L 46.400 224.000 46.400 218.000 L 46.400 212.000 52.927 212.000 C 57.596 212.000,60.036 212.173,61.497 212.607 M165.263 212.775 C 172.937 214.032,176.786 219.192,176.796 228.234 C 176.808 239.851,171.166 245.080,159.000 244.728 L 154.600 244.600 154.495 229.001 C 154.438 220.421,154.477 213.176,154.583 212.901 C 154.816 212.292,161.811 212.210,165.263 212.775 M219.263 212.775 C 225.925 213.867,229.794 218.123,230.736 225.400 C 231.834 233.879,228.124 241.656,221.966 243.785 C 219.126 244.767,209.287 245.181,208.755 244.340 C 208.355 243.710,208.270 213.063,208.667 212.667 C 209.063 212.270,216.656 212.348,219.263 212.775 M64.467 231.952 C 67.743 233.373,69.139 236.102,68.362 239.568 C 67.373 243.982,65.217 244.800,54.567 244.800 L 46.400 244.800 46.400 238.000 L 46.400 231.200 54.567 231.200 C 61.678 231.200,62.958 231.297,64.467 231.952 " stroke="none" fill="#0b0b0b" fill-rule="evenodd"></path><path id="path1" d="M0.000 200.000 L 0.000 400.000 200.000 400.000 L 400.000 400.000 400.000 200.000 L 400.000 0.000 200.000 0.000 L 0.000 0.000 0.000 200.000 M145.681 109.751 C 155.936 114.649,156.167 132.296,146.043 137.367 C 130.806 144.999,116.403 128.019,126.034 113.779 C 129.475 108.690,139.261 106.684,145.681 109.751 M249.251 109.736 C 259.537 114.650,259.788 132.286,249.643 137.367 C 236.626 143.887,223.705 133.118,227.366 118.800 C 229.620 109.986,240.415 105.515,249.251 109.736 M85.142 109.700 C 85.319 110.195,86.429 114.992,87.610 120.359 C 89.021 126.780,89.857 129.859,90.051 129.359 C 90.214 128.942,91.281 124.460,92.422 119.400 C 95.040 107.790,94.434 108.800,98.780 108.800 L 102.332 108.800 103.951 115.500 C 104.841 119.185,105.849 123.460,106.192 125.000 C 106.534 126.540,106.910 128.226,107.026 128.747 C 107.143 129.268,107.316 129.618,107.410 129.524 C 107.560 129.373,112.000 109.526,112.000 109.004 C 112.000 108.892,113.530 108.800,115.400 108.800 C 117.944 108.800,118.800 108.933,118.800 109.326 C 118.800 110.408,111.560 137.766,111.140 138.272 C 110.664 138.846,104.561 139.029,103.760 138.494 C 103.518 138.332,102.288 133.790,101.027 128.400 C 99.765 123.010,98.662 118.529,98.576 118.443 C 98.335 118.201,98.194 118.748,95.959 128.600 C 93.468 139.576,93.932 138.802,89.851 138.794 C 85.195 138.785,86.301 141.147,80.634 119.113 C 77.748 107.891,77.662 108.800,81.610 108.800 C 84.577 108.800,84.844 108.868,85.142 109.700 M180.906 109.599 C 188.166 112.315,188.738 124.022,181.700 125.853 C 180.470 126.172,180.492 126.240,183.110 130.256 C 189.017 139.316,188.950 138.788,184.200 138.788 C 180.668 138.788,181.088 139.143,177.226 132.900 L 173.948 127.600 170.781 127.600 C 167.019 127.600,167.244 127.209,167.098 134.000 L 167.000 138.600 164.264 138.719 C 162.591 138.792,161.309 138.656,160.964 138.370 C 160.379 137.884,160.079 110.901,160.643 109.433 C 161.051 108.368,177.987 108.507,180.906 109.599 M200.806 114.500 C 200.814 122.288,200.469 122.261,207.508 115.016 L 213.548 108.800 217.174 108.800 C 221.862 108.800,221.926 108.605,214.936 115.651 C 210.554 120.069,209.173 121.694,209.472 122.081 C 209.693 122.367,212.450 125.840,215.600 129.800 C 218.750 133.760,221.512 137.239,221.738 137.530 C 222.416 138.406,221.265 138.787,217.929 138.794 C 214.299 138.801,215.070 139.422,208.998 131.597 C 203.770 124.860,204.275 125.229,202.400 126.781 L 201.000 127.940 200.800 133.270 L 200.600 138.600 197.864 138.719 C 193.715 138.900,194.000 139.988,194.000 123.984 C 194.000 107.364,193.655 108.800,197.643 108.800 L 200.800 108.800 200.806 114.500 M270.557 109.433 C 270.691 109.781,270.800 114.419,270.800 119.739 C 270.800 131.953,271.513 133.601,276.794 133.599 C 282.320 133.597,282.957 132.193,283.200 119.472 L 283.400 109.000 286.723 108.883 L 290.046 108.767 289.923 120.083 L 289.800 131.400 288.705 133.262 C 284.244 140.851,270.030 141.293,265.510 133.982 C 263.892 131.364,262.705 113.982,263.852 109.700 C 264.165 108.532,270.121 108.295,270.557 109.433 M321.119 111.300 L 321.000 113.800 316.600 114.000 L 312.200 114.200 312.094 126.180 C 311.974 139.750,312.260 138.785,308.349 138.794 C 304.636 138.802,304.828 139.477,304.706 125.966 L 304.600 114.200 300.200 114.000 L 295.800 113.800 295.676 111.851 C 295.468 108.570,294.495 108.800,308.607 108.800 L 321.238 108.800 321.119 111.300 M134.299 114.806 C 129.495 117.411,128.627 127.522,132.867 131.481 C 137.317 135.635,144.419 133.457,146.045 127.440 C 148.465 118.477,141.448 110.929,134.299 114.806 M237.899 114.828 C 232.063 117.908,232.386 129.663,238.390 132.700 C 245.668 136.381,252.143 128.734,249.576 119.489 C 248.296 114.880,242.319 112.494,237.899 114.828 M167.467 114.667 C 167.320 114.813,167.200 116.523,167.200 118.467 L 167.200 122.000 172.020 122.000 C 177.615 122.000,178.883 121.572,179.584 119.447 C 180.161 117.700,179.779 116.199,178.501 115.194 C 177.483 114.393,168.184 113.949,167.467 114.667 M350.869 204.033 C 358.164 205.516,361.238 207.572,363.521 212.496 C 365.254 216.233,364.908 216.741,360.248 217.302 C 354.324 218.016,354.434 218.037,353.326 215.997 C 350.004 209.878,337.029 210.616,337.029 216.924 C 337.029 220.062,338.016 220.880,343.600 222.373 C 344.590 222.638,345.953 223.022,346.628 223.227 C 347.304 223.432,348.191 223.600,348.600 223.600 C 349.009 223.600,349.896 223.768,350.572 223.973 C 351.247 224.178,352.610 224.559,353.600 224.818 C 362.286 227.100,366.122 231.905,365.475 239.695 C 365.120 243.965,364.488 245.534,362.211 247.801 C 358.204 251.789,354.433 252.928,345.200 252.938 C 339.162 252.944,338.339 252.861,335.000 251.903 C 331.059 250.772,326.465 246.546,324.886 242.599 C 323.692 239.613,323.856 239.460,329.184 238.603 C 333.830 237.855,334.800 237.940,334.800 239.096 C 334.800 244.233,349.192 246.641,353.900 242.292 C 354.632 241.616,354.800 241.032,354.800 239.172 C 354.800 235.702,352.872 234.308,346.000 232.808 C 335.850 230.591,333.492 229.704,330.427 226.949 C 322.137 219.495,327.515 204.630,338.594 204.372 C 339.257 204.356,340.160 204.189,340.600 204.000 C 341.754 203.504,348.371 203.525,350.869 204.033 M64.800 204.974 C 76.450 207.383,80.077 221.972,70.151 226.495 C 68.800 227.110,68.940 227.320,71.244 228.138 C 73.671 229.000,76.466 231.449,77.381 233.516 C 77.743 234.332,78.210 235.313,78.419 235.695 C 81.165 240.706,76.028 248.543,68.138 251.381 L 65.275 252.410 50.738 252.305 L 36.200 252.200 36.097 228.626 C 36.015 210.035,36.100 204.982,36.497 204.723 C 37.099 204.331,62.791 204.558,64.800 204.974 M100.322 204.906 C 100.596 205.236,100.788 211.068,100.872 221.606 C 101.001 237.670,101.010 237.815,101.942 239.692 C 103.774 243.383,109.903 245.566,113.881 243.944 C 120.686 241.169,120.545 241.625,120.797 221.600 C 120.908 212.690,121.146 205.175,121.324 204.900 C 121.827 204.123,130.940 204.205,131.594 204.992 C 132.329 205.879,131.920 238.433,131.148 240.400 C 129.516 244.562,127.952 246.769,125.134 248.887 C 123.341 250.234,122.233 250.838,119.400 252.014 C 116.932 253.038,107.750 253.513,104.400 252.791 C 97.258 251.250,93.044 247.701,90.566 241.137 C 89.723 238.906,89.188 206.717,89.969 205.257 C 90.524 204.222,99.501 203.917,100.322 204.906 M313.800 208.800 L 313.800 213.000 300.300 213.105 L 286.800 213.211 286.800 218.405 L 286.800 223.600 298.900 223.606 C 313.220 223.613,312.062 223.202,311.915 228.233 L 311.800 232.200 299.300 232.306 L 286.800 232.411 286.800 238.006 L 286.800 243.600 300.751 243.600 C 317.050 243.600,315.680 243.149,315.516 248.460 L 315.400 252.200 295.800 252.200 L 276.200 252.200 276.097 228.626 C 276.015 210.032,276.100 204.983,276.497 204.729 C 276.774 204.552,285.280 204.451,295.400 204.504 L 313.800 204.600 313.800 208.800 M171.530 205.737 C 185.489 209.887,191.402 225.990,184.354 240.657 C 181.470 246.659,176.594 250.196,169.000 251.796 C 166.149 252.397,146.432 252.694,145.033 252.157 C 144.351 251.896,144.025 205.709,144.700 205.033 C 145.307 204.425,169.230 205.053,171.530 205.737 M225.470 205.696 C 232.623 207.824,237.076 212.016,240.026 219.400 C 241.014 221.872,241.501 230.789,240.801 233.591 C 239.929 237.084,239.458 238.603,239.130 238.980 C 238.949 239.189,238.800 239.604,238.800 239.902 C 238.800 241.882,232.827 248.290,229.704 249.661 C 224.267 252.049,223.831 252.110,211.200 252.274 C 203.753 252.371,199.179 252.281,198.800 252.029 C 198.183 251.618,197.615 207.987,198.197 205.669 L 198.432 204.732 210.916 204.906 C 220.588 205.041,223.866 205.219,225.470 205.696 M263.200 228.357 C 263.200 249.469,263.134 251.940,262.567 252.157 C 261.363 252.619,253.384 252.424,252.880 251.920 C 252.357 251.397,252.149 205.585,252.667 205.067 C 252.813 204.920,255.243 204.800,258.067 204.800 L 263.200 204.800 263.200 228.357 M46.800 218.400 L 46.800 223.600 52.369 223.600 C 62.802 223.600,66.626 221.408,64.707 216.529 C 63.524 213.521,62.504 213.200,54.141 213.200 L 46.800 213.200 46.800 218.400 M155.200 228.400 L 155.200 243.600 160.788 243.600 C 170.451 243.600,174.489 240.343,175.783 231.508 C 177.536 219.528,171.961 213.200,159.654 213.200 L 155.200 213.200 155.200 228.400 M209.200 228.400 L 209.200 243.600 214.788 243.600 C 219.859 243.600,220.572 243.510,222.488 242.629 C 227.401 240.369,230.000 235.385,230.000 228.224 C 230.000 217.807,224.987 213.200,213.654 213.200 L 209.200 213.200 209.200 228.400 M46.800 237.845 L 46.800 244.089 55.302 243.942 C 66.000 243.756,67.756 242.869,67.767 237.642 C 67.776 233.083,64.102 231.600,52.793 231.600 L 46.800 231.600 46.800 237.845 " stroke="none" fill="#f8f8f8" fill-rule="evenodd"></path><path id="path2" d="M112.190 110.030 C 111.812 111.222,112.127 111.315,112.667 110.171 C 112.919 109.637,112.974 109.200,112.789 109.200 C 112.605 109.200,112.335 109.574,112.190 110.030 M117.850 110.450 C 117.517 112.117,117.840 112.440,118.200 110.800 C 118.352 110.109,118.393 109.459,118.291 109.358 C 118.189 109.256,117.991 109.747,117.850 110.450 M160.800 123.800 C 160.800 137.440,160.846 138.400,161.500 138.394 C 162.011 138.389,162.062 138.300,161.690 138.064 C 161.289 137.809,161.203 134.696,161.290 123.470 C 161.350 115.621,161.265 109.200,161.100 109.200 C 160.935 109.200,160.800 115.770,160.800 123.800 M176.305 109.483 C 176.802 109.579,177.522 109.575,177.905 109.475 C 178.287 109.375,177.880 109.296,177.000 109.301 C 176.120 109.305,175.807 109.387,176.305 109.483 M194.400 123.800 C 194.400 137.440,194.446 138.400,195.100 138.394 C 195.611 138.389,195.662 138.300,195.290 138.064 C 194.889 137.809,194.803 134.696,194.890 123.470 C 194.950 115.621,194.865 109.200,194.700 109.200 C 194.535 109.200,194.400 115.770,194.400 123.800 M207.600 115.400 C 204.195 118.810,201.277 121.600,201.116 121.600 C 200.954 121.600,200.766 118.945,200.699 115.700 L 200.577 109.800 200.488 115.900 C 200.422 120.460,200.522 122.000,200.885 122.000 C 201.151 122.000,204.269 119.120,207.812 115.600 C 211.356 112.080,214.150 109.200,214.023 109.200 C 213.895 109.200,211.005 111.990,207.600 115.400 M264.180 109.709 C 264.072 109.988,264.037 114.353,264.100 119.409 L 264.216 128.600 264.308 119.133 C 264.377 112.005,264.524 109.617,264.900 109.465 C 265.292 109.307,265.289 109.256,264.887 109.232 C 264.606 109.214,264.287 109.429,264.180 109.709 M269.492 109.488 C 269.852 109.744,270.017 112.362,270.104 119.219 L 270.223 128.600 270.211 119.033 C 270.202 110.875,270.112 109.442,269.600 109.303 C 269.164 109.184,269.134 109.234,269.492 109.488 M130.700 110.229 C 129.149 111.070,129.325 111.361,130.900 110.559 C 132.408 109.793,132.675 109.594,132.167 109.616 C 131.965 109.625,131.305 109.901,130.700 110.229 M94.629 111.029 C 94.481 111.615,94.438 112.172,94.532 112.266 C 94.627 112.360,94.824 111.958,94.971 111.371 C 95.119 110.785,95.162 110.228,95.068 110.134 C 94.973 110.040,94.776 110.442,94.629 111.029 M283.687 119.000 C 283.633 124.060,283.496 128.650,283.383 129.200 L 283.177 130.200 283.596 129.246 C 283.859 128.645,283.972 124.865,283.899 119.046 L 283.785 109.800 283.687 119.000 M146.811 111.060 C 147.355 111.424,148.351 112.189,149.023 112.760 C 149.696 113.332,149.454 113.035,148.485 112.100 C 147.516 111.165,146.520 110.400,146.272 110.400 C 146.025 110.400,146.267 110.697,146.811 111.060 M251.073 111.554 C 251.950 112.189,253.066 113.224,253.555 113.854 C 254.126 114.590,254.295 114.691,254.027 114.135 C 253.563 113.173,250.475 110.400,249.868 110.400 C 249.655 110.400,250.197 110.919,251.073 111.554 M84.856 111.200 C 84.856 111.530,85.011 112.160,85.200 112.600 C 85.417 113.104,85.544 113.178,85.544 112.800 C 85.544 112.470,85.389 111.840,85.200 111.400 C 84.983 110.896,84.856 110.822,84.856 111.200 M127.578 112.700 L 126.200 114.200 127.700 112.822 C 129.096 111.538,129.384 111.200,129.078 111.200 C 129.012 111.200,128.337 111.875,127.578 112.700 M183.994 112.203 C 185.587 114.121,185.721 114.245,185.286 113.396 C 185.059 112.953,184.452 112.234,183.937 111.798 C 183.033 111.034,183.035 111.048,183.994 112.203 M230.637 113.243 C 229.627 114.367,228.800 115.487,228.800 115.732 C 228.800 115.977,229.097 115.733,229.460 115.189 C 229.823 114.645,230.759 113.525,231.541 112.700 C 232.323 111.875,232.853 111.200,232.718 111.200 C 232.584 111.200,231.647 112.119,230.637 113.243 M137.500 113.482 C 137.995 113.578,138.805 113.578,139.300 113.482 C 139.795 113.387,139.390 113.309,138.400 113.309 C 137.410 113.309,137.005 113.387,137.500 113.482 M241.100 113.482 C 241.595 113.578,242.405 113.578,242.900 113.482 C 243.395 113.387,242.990 113.309,242.000 113.309 C 241.010 113.309,240.605 113.387,241.100 113.482 M93.829 114.629 C 93.681 115.215,93.638 115.772,93.732 115.866 C 93.827 115.960,94.024 115.558,94.171 114.971 C 94.319 114.385,94.362 113.828,94.268 113.734 C 94.173 113.640,93.976 114.042,93.829 114.629 M141.800 114.073 C 142.240 114.320,143.095 114.867,143.700 115.288 C 144.305 115.710,144.800 115.959,144.800 115.842 C 144.800 115.521,141.874 113.598,141.407 113.612 C 141.183 113.619,141.360 113.826,141.800 114.073 M166.972 114.128 C 166.861 114.419,166.821 116.444,166.885 118.628 L 167.000 122.600 171.701 122.620 L 176.401 122.640 171.776 122.507 L 167.151 122.374 167.275 117.986 C 167.399 113.623,167.360 113.119,166.972 114.128 M177.200 114.200 C 179.026 114.903,179.745 114.893,178.200 114.186 C 177.540 113.883,176.730 113.642,176.400 113.648 C 176.070 113.655,176.430 113.903,177.200 114.200 M245.800 114.265 C 246.460 114.613,247.449 115.280,247.997 115.749 L 248.994 116.600 248.198 115.659 C 247.423 114.743,245.563 113.584,244.920 113.616 C 244.744 113.625,245.140 113.917,245.800 114.265 M311.111 125.980 C 311.050 132.790,311.130 138.231,311.288 138.072 C 311.667 137.693,311.887 113.599,311.511 113.600 C 311.352 113.600,311.172 119.171,311.111 125.980 M85.656 114.800 C 85.656 115.130,85.811 115.760,86.000 116.200 C 86.217 116.704,86.344 116.778,86.344 116.400 C 86.344 116.070,86.189 115.440,86.000 115.000 C 85.783 114.496,85.656 114.422,85.656 114.800 M132.175 115.700 L 131.000 117.000 132.300 115.825 C 133.512 114.730,133.784 114.400,133.475 114.400 C 133.406 114.400,132.821 114.985,132.175 115.700 M151.078 115.795 C 151.444 116.562,151.814 117.119,151.901 117.032 C 152.084 116.849,150.870 114.400,150.596 114.400 C 150.495 114.400,150.712 115.028,151.078 115.795 M185.858 115.600 C 186.175 117.325,186.402 117.651,186.394 116.367 C 186.391 115.835,186.211 115.130,185.994 114.800 C 185.718 114.378,185.677 114.615,185.858 115.600 M211.631 117.769 C 209.648 119.762,208.392 121.332,208.521 121.656 C 208.683 122.065,208.745 122.043,208.768 121.569 C 208.786 121.223,210.245 119.533,212.011 117.814 C 213.777 116.095,215.163 114.629,215.090 114.557 C 215.017 114.484,213.461 115.929,211.631 117.769 M235.641 115.814 C 234.959 116.592,234.400 117.348,234.400 117.494 C 234.400 117.640,234.536 117.589,234.703 117.380 C 234.870 117.171,235.533 116.415,236.178 115.700 C 236.822 114.985,237.245 114.400,237.116 114.400 C 236.988 114.400,236.324 115.036,235.641 115.814 M80.056 115.200 C 80.056 115.530,80.211 116.160,80.400 116.600 C 80.617 117.104,80.744 117.178,80.744 116.800 C 80.744 116.470,80.589 115.840,80.400 115.400 C 80.183 114.896,80.056 114.822,80.056 115.200 M98.000 116.999 C 97.706 117.549,97.569 118.103,97.696 118.230 C 97.823 118.356,98.046 118.084,98.192 117.624 C 98.338 117.165,98.625 116.892,98.829 117.018 C 99.033 117.144,99.200 116.967,99.200 116.624 C 99.200 115.686,98.603 115.873,98.000 116.999 M110.629 117.029 C 110.481 117.615,110.438 118.172,110.532 118.266 C 110.627 118.360,110.824 117.958,110.971 117.371 C 111.119 116.785,111.162 116.228,111.068 116.134 C 110.973 116.040,110.776 116.442,110.629 117.029 M86.456 118.400 C 86.456 118.730,86.611 119.360,86.800 119.800 C 87.017 120.304,87.144 120.378,87.144 120.000 C 87.144 119.670,86.989 119.040,86.800 118.600 C 86.583 118.096,86.456 118.022,86.456 118.400 M104.056 118.800 C 104.056 119.130,104.211 119.760,104.400 120.200 C 104.617 120.704,104.744 120.778,104.744 120.400 C 104.744 120.070,104.589 119.440,104.400 119.000 C 104.183 118.496,104.056 118.422,104.056 118.800 M99.256 119.200 C 99.256 119.530,99.411 120.160,99.600 120.600 C 99.817 121.104,99.944 121.178,99.944 120.800 C 99.944 120.470,99.789 119.840,99.600 119.400 C 99.383 118.896,99.256 118.822,99.256 119.200 M129.829 119.829 C 129.681 120.415,129.638 120.972,129.732 121.066 C 129.827 121.160,130.024 120.758,130.171 120.171 C 130.319 119.585,130.362 119.028,130.268 118.934 C 130.173 118.840,129.976 119.242,129.829 119.829 M227.456 119.684 C 227.321 120.188,227.228 121.050,227.249 121.600 C 227.272 122.189,227.431 121.871,227.636 120.825 C 228.003 118.952,227.873 118.127,227.456 119.684 M256.291 122.402 C 256.510 126.810,256.736 127.410,256.740 123.600 C 256.742 121.950,256.604 120.241,256.432 119.802 C 256.261 119.364,256.197 120.534,256.291 122.402 M109.829 120.629 C 109.681 121.215,109.638 121.772,109.732 121.866 C 109.827 121.960,110.024 121.558,110.171 120.971 C 110.319 120.385,110.362 119.828,110.268 119.734 C 110.173 119.640,109.976 120.042,109.829 120.629 M146.688 122.600 C 146.914 126.758,147.136 127.346,147.140 123.800 C 147.142 122.260,147.002 120.640,146.828 120.200 C 146.654 119.757,146.591 120.827,146.688 122.600 M92.229 121.429 C 92.081 122.015,92.038 122.572,92.132 122.666 C 92.227 122.760,92.424 122.358,92.571 121.771 C 92.719 121.185,92.762 120.628,92.668 120.534 C 92.573 120.440,92.376 120.842,92.229 121.429 M178.600 121.450 C 177.881 122.062,177.734 122.305,178.233 122.057 C 178.966 121.693,180.341 120.376,179.949 120.414 C 179.867 120.422,179.260 120.888,178.600 121.450 M233.301 121.800 C 233.305 122.680,233.387 122.993,233.483 122.495 C 233.579 121.998,233.575 121.278,233.475 120.895 C 233.375 120.513,233.296 120.920,233.301 121.800 M123.728 123.600 C 123.728 125.030,123.801 125.615,123.889 124.900 C 123.978 124.185,123.978 123.015,123.889 122.300 C 123.801 121.585,123.728 122.170,123.728 123.600 M87.256 122.000 C 87.256 122.330,87.411 122.960,87.600 123.400 C 87.817 123.904,87.944 123.978,87.944 123.600 C 87.944 123.270,87.789 122.640,87.600 122.200 C 87.383 121.696,87.256 121.622,87.256 122.000 M152.914 123.400 C 152.917 124.500,152.995 124.903,153.087 124.295 C 153.179 123.686,153.177 122.786,153.082 122.295 C 152.987 121.803,152.911 122.300,152.914 123.400 M250.520 123.600 C 250.520 124.810,250.595 125.305,250.687 124.700 C 250.778 124.095,250.778 123.105,250.687 122.500 C 250.595 121.895,250.520 122.390,250.520 123.600 M114.629 123.029 C 114.481 123.615,114.438 124.172,114.532 124.266 C 114.627 124.360,114.824 123.958,114.971 123.371 C 115.119 122.785,115.162 122.228,115.068 122.134 C 114.973 122.040,114.776 122.442,114.629 123.029 M96.229 124.229 C 96.081 124.815,96.038 125.372,96.132 125.466 C 96.227 125.560,96.424 125.158,96.571 124.571 C 96.719 123.985,96.762 123.428,96.668 123.334 C 96.573 123.240,96.376 123.642,96.229 124.229 M109.029 124.229 C 108.881 124.815,108.838 125.372,108.932 125.466 C 109.027 125.560,109.224 125.158,109.371 124.571 C 109.519 123.985,109.562 123.428,109.468 123.334 C 109.373 123.240,109.176 123.642,109.029 124.229 M233.301 125.400 C 233.305 126.280,233.387 126.593,233.483 126.095 C 233.579 125.598,233.575 124.878,233.475 124.495 C 233.375 124.113,233.296 124.520,233.301 125.400 M227.228 125.833 C 227.244 126.475,227.416 127.360,227.610 127.800 C 227.847 128.334,227.886 128.002,227.727 126.800 C 227.446 124.680,227.188 124.180,227.228 125.833 M88.056 125.600 C 88.056 125.930,88.211 126.560,88.400 127.000 C 88.617 127.504,88.744 127.578,88.744 127.200 C 88.744 126.870,88.589 126.240,88.400 125.800 C 88.183 125.296,88.056 125.222,88.056 125.600 M202.122 126.229 L 201.000 127.258 202.300 126.354 C 203.015 125.857,203.600 125.393,203.600 125.325 C 203.600 125.009,203.158 125.280,202.122 126.229 M100.856 126.000 C 100.856 126.330,101.011 126.960,101.200 127.400 C 101.417 127.904,101.544 127.978,101.544 127.600 C 101.544 127.270,101.389 126.640,101.200 126.200 C 100.983 125.696,100.856 125.622,100.856 126.000 M129.668 126.200 C 129.662 126.640,129.811 127.360,130.000 127.800 C 130.438 128.819,130.438 127.768,130.000 126.400 C 129.743 125.596,129.677 125.557,129.668 126.200 M180.000 126.029 C 180.000 126.536,181.986 130.000,182.276 130.000 C 182.386 130.000,182.000 129.187,181.418 128.194 C 180.836 127.201,180.469 126.211,180.603 125.994 C 180.738 125.777,180.657 125.600,180.424 125.600 C 180.191 125.600,180.000 125.793,180.000 126.029 M108.229 127.829 C 108.081 128.415,108.038 128.972,108.132 129.066 C 108.227 129.160,108.424 128.758,108.571 128.171 C 108.719 127.585,108.762 127.028,108.668 126.934 C 108.573 126.840,108.376 127.242,108.229 127.829 M83.256 127.600 C 83.256 127.930,83.411 128.560,83.600 129.000 C 83.817 129.504,83.944 129.578,83.944 129.200 C 83.944 128.870,83.789 128.240,83.600 127.800 C 83.383 127.296,83.256 127.222,83.256 127.600 M166.887 132.467 C 166.824 136.398,166.660 137.990,166.300 138.135 C 165.908 138.293,165.911 138.344,166.313 138.368 C 167.135 138.419,167.232 137.654,167.099 132.179 L 166.974 127.000 166.887 132.467 M90.629 128.629 C 90.481 129.215,90.438 129.772,90.532 129.866 C 90.627 129.960,90.824 129.558,90.971 128.971 C 91.119 128.385,91.162 127.828,91.068 127.734 C 90.973 127.640,90.776 128.042,90.629 128.629 M200.486 132.667 C 200.425 136.438,200.258 137.991,199.900 138.135 C 199.508 138.293,199.511 138.344,199.913 138.368 C 200.732 138.419,200.833 137.650,200.699 132.378 L 200.573 127.400 200.486 132.667 M207.375 128.932 C 207.991 129.739,208.576 130.400,208.675 130.400 C 208.953 130.400,207.221 128.060,206.709 127.744 C 206.459 127.589,206.759 128.124,207.375 128.932 M289.246 129.667 C 289.221 130.034,289.096 130.664,288.970 131.067 C 288.752 131.762,288.763 131.763,289.197 131.087 C 289.448 130.696,289.573 130.066,289.473 129.687 C 289.311 129.068,289.288 129.066,289.246 129.667 M106.412 129.867 C 106.389 130.760,106.889 131.600,107.443 131.600 C 107.749 131.600,108.000 131.319,108.000 130.976 C 108.000 130.633,107.831 130.457,107.625 130.585 C 107.418 130.712,107.064 130.498,106.837 130.108 C 106.610 129.719,106.419 129.610,106.412 129.867 M94.629 131.029 C 94.481 131.615,94.438 132.172,94.532 132.266 C 94.627 132.360,94.824 131.958,94.971 131.371 C 95.119 130.785,95.162 130.228,95.068 130.134 C 94.973 130.040,94.776 130.442,94.629 131.029 M176.600 131.200 C 176.941 131.860,177.311 132.400,177.421 132.400 C 177.531 132.400,177.341 131.860,177.000 131.200 C 176.659 130.540,176.289 130.000,176.179 130.000 C 176.069 130.000,176.259 130.540,176.600 131.200 M84.056 130.800 C 84.056 131.130,84.211 131.760,84.400 132.200 C 84.617 132.704,84.744 132.778,84.744 132.400 C 84.744 132.070,84.589 131.440,84.400 131.000 C 84.183 130.496,84.056 130.422,84.056 130.800 M131.617 131.000 C 131.938 131.440,132.470 132.028,132.800 132.307 C 133.483 132.884,135.213 133.884,134.600 133.348 C 134.380 133.155,133.488 132.368,132.617 131.599 C 131.747 130.830,131.297 130.560,131.617 131.000 M143.600 132.074 C 142.610 132.976,142.160 133.524,142.600 133.292 C 143.352 132.894,145.952 130.381,145.575 130.416 C 145.479 130.425,144.590 131.171,143.600 132.074 M271.567 132.145 C 272.100 132.801,273.600 133.793,273.600 133.489 C 273.600 133.413,273.015 132.922,272.300 132.399 C 271.496 131.810,271.216 131.713,271.567 132.145 M102.456 132.800 C 102.456 133.130,102.611 133.760,102.800 134.200 C 103.017 134.704,103.144 134.778,103.144 134.400 C 103.144 134.070,102.989 133.440,102.800 133.000 C 102.583 132.496,102.456 132.422,102.456 132.800 M148.778 134.700 L 147.400 136.200 148.900 134.822 C 149.725 134.063,150.400 133.388,150.400 133.322 C 150.400 133.016,150.062 133.304,148.778 134.700 M93.829 134.629 C 93.681 135.215,93.638 135.772,93.732 135.866 C 93.827 135.960,94.024 135.558,94.171 134.971 C 94.319 134.385,94.362 133.828,94.268 133.734 C 94.173 133.640,93.976 134.042,93.829 134.629 M252.175 134.900 L 251.000 136.200 252.300 135.025 C 253.015 134.379,253.600 133.794,253.600 133.725 C 253.600 133.416,253.270 133.688,252.175 134.900 M274.715 134.072 C 275.092 134.221,276.030 134.344,276.800 134.344 C 277.570 134.344,278.508 134.221,278.885 134.072 C 279.262 133.922,278.324 133.800,276.800 133.800 C 275.276 133.800,274.338 133.922,274.715 134.072 M137.700 134.276 C 138.085 134.376,138.715 134.376,139.100 134.276 C 139.485 134.175,139.170 134.093,138.400 134.093 C 137.630 134.093,137.315 134.175,137.700 134.276 M241.300 134.276 C 241.685 134.376,242.315 134.376,242.700 134.276 C 243.085 134.175,242.770 134.093,242.000 134.093 C 241.230 134.093,240.915 134.175,241.300 134.276 M111.429 135.429 C 111.281 136.015,111.238 136.572,111.332 136.666 C 111.427 136.760,111.624 136.358,111.771 135.771 C 111.919 135.185,111.962 134.628,111.868 134.534 C 111.773 134.440,111.576 134.842,111.429 135.429 M128.782 135.778 C 129.480 136.619,131.595 137.738,131.904 137.429 C 132.030 137.303,131.948 137.200,131.722 137.200 C 131.497 137.200,130.616 136.728,129.767 136.152 C 128.917 135.575,128.474 135.407,128.782 135.778 M179.215 135.400 C 179.217 135.620,179.586 136.250,180.036 136.800 C 180.579 137.464,180.715 137.531,180.440 137.000 C 179.766 135.695,179.212 134.972,179.215 135.400 M186.360 136.439 C 186.816 137.230,187.057 138.024,186.895 138.203 C 186.733 138.382,186.825 138.398,187.101 138.240 C 187.641 137.929,187.382 137.231,186.195 135.800 C 185.798 135.322,185.865 135.578,186.360 136.439 M103.232 136.424 C 103.214 136.766,103.480 137.396,103.822 137.824 C 104.434 138.588,104.438 138.587,104.076 137.800 C 103.874 137.360,103.608 136.730,103.486 136.400 C 103.293 135.882,103.259 135.885,103.232 136.424 M220.524 137.059 C 221.084 137.721,221.129 137.965,220.724 138.127 C 220.382 138.264,220.443 138.348,220.900 138.368 C 221.855 138.412,221.779 137.875,220.700 136.962 L 219.800 136.200 220.524 137.059 M137.107 138.690 C 137.826 138.779,138.906 138.777,139.507 138.686 C 140.108 138.595,139.520 138.522,138.200 138.524 C 136.880 138.526,136.388 138.601,137.107 138.690 M240.707 138.690 C 241.426 138.779,242.506 138.777,243.107 138.686 C 243.708 138.595,243.120 138.522,241.800 138.524 C 240.480 138.526,239.988 138.601,240.707 138.690 M275.705 138.687 C 276.314 138.779,277.214 138.777,277.705 138.682 C 278.197 138.587,277.700 138.511,276.600 138.514 C 275.500 138.517,275.097 138.595,275.705 138.687 M343.116 204.697 C 344.499 204.775,346.659 204.774,347.916 204.695 C 349.172 204.616,348.040 204.552,345.400 204.553 C 342.760 204.553,341.732 204.618,343.116 204.697 M37.063 205.100 C 36.961 205.265,42.846 205.400,50.139 205.400 C 57.433 205.400,62.590 205.278,61.600 205.130 C 59.113 204.756,37.290 204.730,37.063 205.100 M90.662 205.100 C 90.560 205.265,92.602 205.400,95.200 205.400 C 97.798 205.400,99.840 205.265,99.738 205.100 C 99.636 204.935,97.594 204.800,95.200 204.800 C 92.806 204.800,90.764 204.935,90.662 205.100 M121.862 205.100 C 121.760 205.265,123.802 205.400,126.400 205.400 C 128.998 205.400,131.040 205.265,130.938 205.100 C 130.836 204.935,128.794 204.800,126.400 204.800 C 124.006 204.800,121.964 204.935,121.862 205.100 M145.067 205.067 C 144.920 205.213,144.803 205.528,144.806 205.767 C 144.810 206.030,144.935 206.007,145.125 205.708 C 145.351 205.351,147.734 205.185,153.818 205.100 L 162.200 204.983 153.767 204.891 C 149.128 204.841,145.213 204.920,145.067 205.067 M199.300 205.065 C 198.737 205.292,198.540 251.392,199.100 251.738 C 199.265 251.840,199.400 241.456,199.400 228.662 L 199.400 205.400 207.800 205.188 L 216.200 204.975 208.000 204.919 C 203.490 204.888,199.575 204.954,199.300 205.065 M253.472 205.300 C 252.573 205.961,252.610 251.654,253.510 251.837 C 253.790 251.894,253.836 251.849,253.610 251.737 C 253.337 251.601,253.200 243.855,253.200 228.574 L 253.200 205.615 254.100 205.390 C 254.595 205.266,256.620 205.218,258.600 205.282 L 262.200 205.400 262.200 228.662 C 262.200 241.456,262.335 251.840,262.500 251.738 C 263.041 251.404,262.864 205.824,262.320 205.280 C 261.656 204.616,254.382 204.632,253.472 205.300 M277.064 205.096 C 276.961 205.263,285.004 205.400,294.938 205.400 L 313.000 205.400 313.115 208.895 L 313.231 212.389 299.715 212.503 L 286.200 212.616 299.800 212.608 L 313.400 212.600 313.400 208.800 L 313.400 205.000 295.326 204.896 C 285.385 204.839,277.168 204.929,277.064 205.096 M337.000 205.200 C 335.981 205.638,337.032 205.638,338.400 205.200 C 339.204 204.943,339.243 204.877,338.600 204.868 C 338.160 204.862,337.440 205.011,337.000 205.200 M352.400 205.200 C 353.768 205.638,354.819 205.638,353.800 205.200 C 353.360 205.011,352.640 204.862,352.200 204.868 C 351.557 204.877,351.596 204.943,352.400 205.200 M163.900 205.482 C 164.395 205.578,165.205 205.578,165.700 205.482 C 166.195 205.387,165.790 205.309,164.800 205.309 C 163.810 205.309,163.405 205.387,163.900 205.482 M217.705 205.487 C 218.314 205.579,219.214 205.577,219.705 205.482 C 220.197 205.387,219.700 205.311,218.600 205.314 C 217.500 205.317,217.097 205.395,217.705 205.487 M168.433 205.744 C 168.525 205.823,169.140 206.008,169.800 206.156 C 170.676 206.352,170.838 206.315,170.400 206.018 C 169.860 205.653,168.032 205.398,168.433 205.744 M222.433 205.744 C 222.525 205.823,223.140 206.008,223.800 206.156 C 224.676 206.352,224.838 206.315,224.400 206.018 C 223.860 205.653,222.032 205.398,222.433 205.744 M36.491 228.676 C 36.441 241.258,36.535 251.636,36.700 251.738 C 36.972 251.907,36.968 235.162,36.690 214.000 C 36.631 209.490,36.542 216.094,36.491 228.676 M276.491 228.676 C 276.441 241.258,276.535 251.636,276.700 251.738 C 276.972 251.907,276.968 235.162,276.690 214.000 C 276.631 209.490,276.542 216.094,276.491 228.676 M332.389 207.060 C 330.966 208.011,328.800 210.079,328.337 210.930 C 328.119 211.331,328.808 210.782,329.870 209.709 C 330.931 208.636,332.250 207.462,332.800 207.100 C 333.350 206.738,333.705 206.433,333.589 206.421 C 333.473 206.409,332.933 206.697,332.389 207.060 M360.438 208.977 C 360.788 209.430,361.373 210.245,361.738 210.789 C 362.102 211.333,362.400 211.588,362.400 211.356 C 362.400 211.123,361.815 210.308,361.100 209.543 C 360.385 208.779,360.087 208.524,360.438 208.977 M180.185 211.531 C 181.277 212.669,182.235 213.600,182.315 213.600 C 182.631 213.600,180.552 211.324,179.411 210.421 C 178.745 209.894,179.093 210.393,180.185 211.531 M234.457 211.812 C 235.684 213.138,236.988 214.803,237.354 215.512 C 237.721 216.220,238.117 216.800,238.236 216.800 C 238.849 216.800,236.402 213.389,234.456 211.531 L 232.226 209.400 234.457 211.812 M340.600 211.600 C 339.581 212.038,340.632 212.038,342.000 211.600 C 342.804 211.343,342.843 211.277,342.200 211.268 C 341.760 211.262,341.040 211.411,340.600 211.600 M347.233 211.344 C 347.325 211.423,347.940 211.608,348.600 211.756 C 349.476 211.952,349.638 211.915,349.200 211.618 C 348.660 211.253,346.832 210.998,347.233 211.344 M46.401 212.300 C 46.401 212.465,49.834 212.600,54.030 212.600 C 58.225 212.600,61.240 212.483,60.729 212.340 C 59.417 211.973,46.400 211.936,46.401 212.300 M350.600 212.254 C 350.820 212.448,351.629 213.145,352.399 213.803 L 353.797 215.000 352.799 213.863 C 352.249 213.238,351.440 212.541,351.000 212.314 C 350.560 212.088,350.380 212.061,350.600 212.254 M154.660 212.700 C 154.558 212.865,155.942 212.952,157.737 212.892 C 163.617 212.698,164.282 212.541,159.524 212.470 C 156.952 212.431,154.763 212.535,154.660 212.700 M208.667 212.667 C 208.333 213.000,208.311 243.301,208.643 244.167 C 208.902 244.842,217.395 245.056,219.593 244.444 C 220.140 244.291,217.980 244.174,214.793 244.184 L 209.000 244.200 208.895 228.513 L 208.791 212.825 213.495 212.699 L 218.200 212.572 213.567 212.486 C 211.018 212.439,208.813 212.520,208.667 212.667 M63.077 213.581 C 63.779 214.010,64.627 214.864,64.961 215.480 C 65.295 216.096,65.575 216.357,65.584 216.060 C 65.605 215.366,63.049 212.800,62.340 212.801 C 62.043 212.802,62.375 213.153,63.077 213.581 M166.200 213.200 C 166.640 213.389,167.270 213.544,167.600 213.544 C 167.978 213.544,167.904 213.417,167.400 213.200 C 166.960 213.011,166.330 212.856,166.000 212.856 C 165.622 212.856,165.696 212.983,166.200 213.200 M220.200 213.200 C 220.640 213.389,221.270 213.544,221.600 213.544 C 221.978 213.544,221.904 213.417,221.400 213.200 C 220.960 213.011,220.330 212.856,220.000 212.856 C 219.622 212.856,219.696 212.983,220.200 213.200 M170.794 215.182 C 171.341 215.602,171.868 215.866,171.965 215.769 C 172.191 215.542,170.729 214.427,170.200 214.422 C 169.980 214.420,170.247 214.761,170.794 215.182 M225.307 215.500 C 226.885 216.697,227.928 217.937,228.926 219.800 C 229.279 220.460,229.575 220.806,229.584 220.569 C 229.631 219.299,225.320 214.400,224.155 214.400 C 223.992 214.400,224.510 214.895,225.307 215.500 M326.501 217.400 C 326.505 218.280,326.587 218.593,326.683 218.095 C 326.779 217.598,326.775 216.878,326.675 216.495 C 326.575 216.113,326.496 216.520,326.501 217.400 M360.200 216.400 C 359.130 216.672,359.108 216.705,360.000 216.705 C 360.550 216.705,361.540 216.568,362.200 216.400 C 363.270 216.128,363.292 216.095,362.400 216.095 C 361.850 216.095,360.860 216.232,360.200 216.400 M354.608 217.213 C 354.774 217.481,357.200 217.227,357.200 216.942 C 357.200 216.850,356.582 216.817,355.826 216.867 C 355.070 216.918,354.522 217.074,354.608 217.213 M336.025 218.106 C 336.011 218.494,336.585 219.402,337.300 220.124 C 338.015 220.846,338.205 220.979,337.723 220.419 C 337.241 219.858,336.667 218.950,336.448 218.400 C 336.167 217.692,336.043 217.606,336.025 218.106 M185.668 221.600 C 185.688 222.639,186.318 224.346,186.332 223.400 C 186.338 222.960,186.189 222.240,186.000 221.800 C 185.789 221.310,185.661 221.232,185.668 221.600 M73.074 223.233 C 72.455 224.095,72.028 224.800,72.127 224.800 C 72.403 224.800,74.499 221.966,74.340 221.807 C 74.263 221.730,73.693 222.372,73.074 223.233 M176.262 223.800 C 176.396 224.680,176.572 225.475,176.653 225.567 C 176.956 225.910,176.729 223.768,176.381 223.000 C 176.129 222.442,176.093 222.685,176.262 223.800 M60.800 223.600 C 59.976 223.864,59.941 223.926,60.600 223.954 C 61.040 223.973,61.670 223.813,62.000 223.600 C 62.701 223.147,62.214 223.147,60.800 223.600 M240.196 228.211 C 240.193 231.424,240.297 232.773,240.472 231.786 C 240.812 229.874,240.801 225.845,240.453 224.226 C 240.314 223.580,240.198 225.373,240.196 228.211 M345.000 223.600 C 345.440 223.789,346.070 223.944,346.400 223.944 C 346.778 223.944,346.704 223.817,346.200 223.600 C 345.760 223.411,345.130 223.256,344.800 223.256 C 344.422 223.256,344.496 223.383,345.000 223.600 M286.400 224.500 C 286.400 224.665,292.025 224.762,298.900 224.714 C 311.343 224.629,309.930 224.497,294.500 224.302 C 290.044 224.246,286.399 224.335,286.400 224.500 M348.600 224.400 C 349.040 224.589,349.670 224.744,350.000 224.744 C 350.378 224.744,350.304 224.617,349.800 224.400 C 349.360 224.211,348.730 224.056,348.400 224.056 C 348.022 224.056,348.096 224.183,348.600 224.400 M230.531 228.200 C 230.531 231.301,230.592 231.751,230.802 230.200 C 230.952 229.100,230.951 227.300,230.802 226.200 C 230.591 224.649,230.530 225.098,230.531 228.200 M328.800 224.925 C 328.800 224.994,329.385 225.579,330.100 226.225 L 331.400 227.400 330.225 226.100 C 329.130 224.888,328.800 224.616,328.800 224.925 M351.800 225.200 C 352.240 225.389,352.870 225.544,353.200 225.544 C 353.578 225.544,353.504 225.417,353.000 225.200 C 352.560 225.011,351.930 224.856,351.600 224.856 C 351.222 224.856,351.296 224.983,351.800 225.200 M311.197 228.482 C 311.088 230.397,311.143 231.820,311.318 231.644 C 311.493 231.468,311.581 229.901,311.515 228.162 L 311.393 225.000 311.197 228.482 M67.604 226.995 C 67.092 227.613,68.113 228.420,68.684 227.849 C 68.821 227.712,68.701 227.600,68.418 227.600 C 68.005 227.600,68.001 227.481,68.400 227.000 C 68.678 226.665,68.721 226.400,68.498 226.400 C 68.278 226.400,67.876 226.668,67.604 226.995 M359.211 227.860 C 359.755 228.223,360.911 229.168,361.781 229.960 C 363.107 231.167,363.120 230.758,361.800 229.388 C 361.146 228.710,358.902 227.200,358.549 227.200 C 358.369 227.200,358.667 227.497,359.211 227.860 M72.600 229.292 C 73.040 229.571,74.183 230.587,75.140 231.549 C 76.098 232.511,76.698 232.961,76.475 232.549 C 75.912 231.511,73.999 229.789,72.800 229.241 C 71.936 228.846,71.909 228.853,72.600 229.292 M176.449 231.400 C 176.416 231.840,176.296 232.650,176.183 233.200 L 175.977 234.200 176.406 233.219 C 176.642 232.679,176.761 231.869,176.672 231.419 C 176.513 230.621,176.507 230.621,176.449 231.400 M61.633 231.344 C 61.725 231.423,62.340 231.608,63.000 231.756 C 63.876 231.952,64.038 231.915,63.600 231.618 C 63.060 231.253,61.232 230.998,61.633 231.344 M343.400 231.600 C 343.840 231.789,344.470 231.944,344.800 231.944 C 345.178 231.944,345.104 231.817,344.600 231.600 C 344.160 231.411,343.530 231.256,343.200 231.256 C 342.822 231.256,342.896 231.383,343.400 231.600 M66.205 233.435 C 67.082 234.296,67.876 234.954,67.968 234.898 C 68.230 234.741,66.294 232.777,65.405 232.299 C 64.968 232.063,65.328 232.575,66.205 233.435 M186.049 232.600 C 186.016 233.040,185.896 233.850,185.783 234.400 L 185.577 235.400 186.006 234.419 C 186.242 233.879,186.361 233.069,186.272 232.619 C 186.113 231.821,186.107 231.821,186.049 232.600 M347.000 232.400 C 347.440 232.589,348.070 232.744,348.400 232.744 C 348.778 232.744,348.704 232.617,348.200 232.400 C 347.760 232.211,347.130 232.056,346.800 232.056 C 346.422 232.056,346.496 232.183,347.000 232.400 M239.429 235.429 C 239.281 236.015,239.238 236.572,239.332 236.666 C 239.427 236.760,239.624 236.358,239.771 235.771 C 239.919 235.185,239.962 234.628,239.868 234.534 C 239.773 234.440,239.576 234.842,239.429 235.429 M100.028 236.033 C 100.044 236.565,100.219 237.360,100.419 237.800 C 100.671 238.358,100.707 238.115,100.538 237.000 C 100.255 235.143,99.987 234.636,100.028 236.033 M121.050 236.450 C 120.717 238.117,121.040 238.440,121.400 236.800 C 121.552 236.109,121.593 235.459,121.491 235.358 C 121.389 235.256,121.191 235.747,121.050 236.450 M68.068 236.200 C 68.062 236.640,68.211 237.360,68.400 237.800 C 68.838 238.819,68.838 237.768,68.400 236.400 C 68.143 235.596,68.077 235.557,68.068 236.200 M77.767 238.800 C 77.767 241.410,77.814 241.605,78.123 240.300 C 78.332 239.423,78.332 238.177,78.123 237.300 C 77.814 235.995,77.767 236.190,77.767 238.800 M364.928 238.400 C 364.928 239.830,365.001 240.415,365.089 239.700 C 365.178 238.985,365.178 237.815,365.089 237.100 C 365.001 236.385,364.928 236.970,364.928 238.400 M90.428 237.633 C 90.444 238.165,90.619 238.960,90.819 239.400 C 91.071 239.958,91.107 239.715,90.938 238.600 C 90.655 236.743,90.387 236.236,90.428 237.633 M130.650 238.050 C 130.317 239.717,130.640 240.040,131.000 238.400 C 131.152 237.709,131.193 237.059,131.091 236.958 C 130.989 236.856,130.791 237.347,130.650 238.050 M355.400 239.000 C 355.400 240.168,355.532 240.916,355.694 240.662 C 355.856 240.408,355.988 239.660,355.988 239.000 C 355.988 238.340,355.856 237.592,355.694 237.338 C 355.532 237.084,355.400 237.832,355.400 239.000 M227.455 239.188 C 226.871 240.071,225.671 241.271,224.788 241.855 C 223.906 242.439,223.266 242.999,223.366 243.099 C 223.466 243.199,224.194 242.788,224.984 242.185 C 226.553 240.988,229.010 238.077,228.707 237.773 C 228.602 237.669,228.039 238.306,227.455 239.188 M330.400 238.800 C 329.596 239.057,329.557 239.123,330.200 239.132 C 330.640 239.138,331.360 238.989,331.800 238.800 C 332.819 238.362,331.768 238.362,330.400 238.800 M171.972 240.911 C 171.187 241.620,170.197 242.428,169.772 242.706 C 169.347 242.984,169.540 242.955,170.200 242.641 C 170.860 242.328,171.929 241.515,172.575 240.836 C 174.099 239.233,173.788 239.271,171.972 240.911 M182.661 242.132 C 182.103 243.084,181.366 244.096,181.023 244.381 C 180.680 244.665,180.400 245.081,180.400 245.304 C 180.400 245.819,182.690 242.962,183.449 241.500 C 184.352 239.763,183.782 240.219,182.661 242.132 M66.270 242.497 C 65.428 243.357,65.068 243.883,65.470 243.667 C 66.345 243.195,68.206 241.259,67.968 241.068 C 67.876 240.994,67.111 241.637,66.270 242.497 M102.004 241.432 C 102.570 242.311,104.768 244.167,104.982 243.947 C 105.060 243.866,104.310 243.095,103.316 242.232 C 102.322 241.370,101.731 241.010,102.004 241.432 M335.798 242.337 C 336.234 242.852,336.953 243.459,337.396 243.686 C 338.245 244.121,338.121 243.987,336.203 242.394 C 335.048 241.435,335.034 241.433,335.798 242.337 M354.489 242.407 C 354.224 242.830,353.331 243.534,352.504 243.971 C 351.677 244.407,351.144 244.773,351.320 244.782 C 352.326 244.838,355.620 242.286,355.149 241.816 C 355.050 241.717,354.753 241.983,354.489 242.407 M92.575 244.352 C 93.430 246.005,95.064 247.858,96.532 248.837 C 97.387 249.408,97.245 249.203,96.095 248.205 C 95.157 247.391,93.925 245.932,93.357 244.963 C 92.204 242.996,91.650 242.563,92.575 244.352 M154.468 244.000 C 154.699 244.704,163.039 245.075,165.295 244.483 C 166.115 244.267,164.557 244.208,161.104 244.322 C 156.810 244.464,155.461 244.383,154.939 243.952 C 154.364 243.478,154.298 243.484,154.468 244.000 M233.983 245.436 C 233.002 246.446,231.300 247.795,230.200 248.433 C 229.100 249.071,228.390 249.594,228.622 249.596 C 229.404 249.603,232.588 247.312,234.383 245.450 C 235.364 244.432,236.077 243.600,235.967 243.600 C 235.857 243.600,234.964 244.426,233.983 245.436 M62.400 244.400 C 61.576 244.664,61.541 244.726,62.200 244.754 C 62.640 244.773,63.270 244.613,63.600 244.400 C 64.301 243.947,63.814 243.947,62.400 244.400 M127.910 244.888 C 127.581 245.389,126.612 246.504,125.756 247.364 C 124.566 248.560,124.482 248.717,125.400 248.030 C 126.814 246.972,128.976 244.442,128.700 244.167 C 128.595 244.061,128.239 244.386,127.910 244.888 M286.661 244.500 C 286.764 244.665,293.059 244.800,300.652 244.800 L 314.457 244.800 314.328 248.401 C 314.258 250.381,314.342 252.001,314.515 252.001 C 314.688 252.000,314.778 250.335,314.715 248.300 L 314.600 244.600 300.538 244.400 C 292.804 244.290,286.559 244.335,286.661 244.500 M363.600 244.677 C 363.600 244.903,362.843 245.968,361.919 247.044 C 360.994 248.120,360.742 248.550,361.358 248.000 C 362.815 246.700,364.153 244.820,363.844 244.510 C 363.710 244.376,363.600 244.451,363.600 244.677 M109.705 245.087 C 110.314 245.179,111.214 245.177,111.705 245.082 C 112.197 244.987,111.700 244.911,110.600 244.914 C 109.500 244.917,109.097 244.995,109.705 245.087 M341.680 245.260 C 342.847 245.590,347.827 245.585,349.378 245.253 C 350.026 245.114,348.352 245.000,345.658 245.000 C 342.963 245.000,341.173 245.117,341.680 245.260 M178.964 246.444 C 178.544 246.911,177.300 247.810,176.200 248.443 C 175.100 249.075,174.390 249.594,174.622 249.596 C 175.456 249.604,180.287 246.154,179.935 245.802 C 179.821 245.688,179.385 245.977,178.964 246.444 M328.400 247.400 C 329.146 248.170,329.847 248.800,329.957 248.800 C 330.067 248.800,329.546 248.170,328.800 247.400 C 328.054 246.630,327.353 246.000,327.243 246.000 C 327.133 246.000,327.654 246.630,328.400 247.400 M331.200 249.564 C 331.750 250.014,332.380 250.383,332.600 250.385 C 333.028 250.388,332.305 249.834,331.000 249.160 C 330.469 248.885,330.536 249.021,331.200 249.564 M63.200 251.600 L 61.400 251.880 63.000 251.900 C 63.880 251.911,65.050 251.776,65.600 251.600 C 66.863 251.195,65.802 251.195,63.200 251.600 M164.505 251.887 C 165.114 251.979,166.014 251.977,166.505 251.882 C 166.997 251.787,166.500 251.711,165.400 251.714 C 164.300 251.717,163.897 251.795,164.505 251.887 M218.100 251.887 C 218.705 251.978,219.695 251.978,220.300 251.887 C 220.905 251.795,220.410 251.720,219.200 251.720 C 217.990 251.720,217.495 251.795,218.100 251.887 M105.823 252.453 C 106.470 252.592,108.440 252.705,110.200 252.705 C 111.960 252.705,113.930 252.592,114.577 252.453 C 115.225 252.314,113.255 252.200,110.200 252.200 C 107.145 252.200,105.175 252.314,105.823 252.453 M340.223 252.453 C 340.870 252.592,343.110 252.705,345.200 252.705 C 347.290 252.705,349.530 252.592,350.177 252.453 C 350.825 252.314,348.585 252.200,345.200 252.200 C 341.815 252.200,339.575 252.314,340.223 252.453 " stroke="none" fill="#747474" fill-rule="evenodd"></path><path id="path3" d="M78.538 109.417 C 78.408 109.757,78.413 110.147,78.551 110.284 C 78.688 110.421,78.800 110.241,78.800 109.884 C 78.800 109.358,79.348 109.209,81.700 109.097 L 84.600 108.959 81.687 108.879 C 79.380 108.817,78.726 108.928,78.538 109.417 M97.111 109.093 C 98.051 109.178,99.491 109.177,100.311 109.091 C 101.130 109.005,100.360 108.936,98.600 108.937 C 96.840 108.939,96.170 109.009,97.111 109.093 M113.891 109.089 C 114.601 109.177,115.861 109.179,116.691 109.092 C 117.521 109.005,116.940 108.933,115.400 108.931 C 113.860 108.929,113.181 109.000,113.891 109.089 M165.121 109.099 C 167.388 109.170,170.988 109.170,173.121 109.098 C 175.255 109.026,173.400 108.968,169.000 108.968 C 164.600 108.968,162.855 109.027,165.121 109.099 M195.891 109.089 C 196.601 109.177,197.861 109.179,198.691 109.092 C 199.521 109.005,198.940 108.933,197.400 108.931 C 195.860 108.929,195.181 109.000,195.891 109.089 M215.500 109.093 C 216.435 109.177,217.965 109.177,218.900 109.093 C 219.835 109.009,219.070 108.940,217.200 108.940 C 215.330 108.940,214.565 109.009,215.500 109.093 M264.262 109.100 C 264.160 109.265,265.482 109.400,267.200 109.400 C 268.918 109.400,270.240 109.265,270.138 109.100 C 270.036 108.935,268.714 108.800,267.200 108.800 C 265.686 108.800,264.364 108.935,264.262 109.100 M285.091 109.089 C 285.801 109.177,287.061 109.179,287.891 109.092 C 288.721 109.005,288.140 108.933,286.600 108.931 C 285.060 108.929,284.381 109.000,285.091 109.089 M302.300 109.099 C 305.655 109.166,311.145 109.166,314.500 109.099 C 317.855 109.032,315.110 108.978,308.400 108.978 C 301.690 108.978,298.945 109.032,302.300 109.099 M289.770 118.400 C 289.770 123.130,289.828 125.065,289.898 122.700 C 289.969 120.335,289.969 116.465,289.898 114.100 C 289.828 111.735,289.770 113.670,289.770 118.400 M320.909 111.600 C 320.909 112.590,320.987 112.995,321.082 112.500 C 321.178 112.005,321.178 111.195,321.082 110.700 C 320.987 110.205,320.909 110.610,320.909 111.600 M169.715 113.896 C 170.988 113.976,172.968 113.975,174.115 113.894 C 175.262 113.814,174.220 113.749,171.800 113.750 C 169.380 113.751,168.442 113.816,169.715 113.896 M298.515 113.896 C 299.788 113.976,301.768 113.975,302.915 113.894 C 304.062 113.814,303.020 113.749,300.600 113.750 C 298.180 113.751,297.242 113.816,298.515 113.896 M314.115 113.896 C 315.388 113.976,317.368 113.975,318.515 113.894 C 319.662 113.814,318.620 113.749,316.200 113.750 C 313.780 113.751,312.842 113.816,314.115 113.896 M305.377 126.200 C 305.377 132.800,305.432 135.556,305.499 132.325 C 305.566 129.093,305.566 123.693,305.499 120.325 C 305.432 116.956,305.377 119.600,305.377 126.200 M213.375 116.500 L 212.200 117.800 213.500 116.625 C 214.215 115.979,214.800 115.394,214.800 115.325 C 214.800 115.016,214.470 115.288,213.375 116.500 M343.891 204.289 C 344.601 204.377,345.861 204.379,346.691 204.292 C 347.521 204.205,346.940 204.133,345.400 204.131 C 343.860 204.129,343.181 204.200,343.891 204.289 M162.705 205.083 C 163.202 205.179,163.922 205.175,164.305 205.075 C 164.687 204.975,164.280 204.896,163.400 204.901 C 162.520 204.905,162.207 204.987,162.705 205.083 M216.705 205.083 C 217.202 205.179,217.922 205.175,218.305 205.075 C 218.687 204.975,218.280 204.896,217.400 204.901 C 216.520 204.905,216.207 204.987,216.705 205.083 M198.587 227.800 C 198.587 240.120,198.638 245.218,198.700 239.128 C 198.762 233.039,198.762 222.959,198.700 216.728 C 198.638 210.498,198.587 215.480,198.587 227.800 M100.181 220.600 C 100.181 228.740,100.234 232.013,100.300 227.874 C 100.365 223.734,100.365 217.074,100.299 213.074 C 100.234 209.073,100.181 212.460,100.181 220.600 M131.380 220.000 C 131.380 227.810,131.434 231.005,131.499 227.100 C 131.565 223.195,131.565 216.805,131.499 212.900 C 131.434 208.995,131.380 212.190,131.380 220.000 M233.600 210.525 C 233.600 210.594,234.185 211.179,234.900 211.825 L 236.200 213.000 235.025 211.700 C 233.930 210.488,233.600 210.216,233.600 210.525 M343.907 211.490 C 344.626 211.579,345.706 211.577,346.307 211.486 C 346.908 211.395,346.320 211.322,345.000 211.324 C 343.680 211.326,343.188 211.401,343.907 211.490 M154.582 228.400 C 154.582 236.870,154.635 240.335,154.699 236.100 C 154.764 231.865,154.764 224.935,154.699 220.700 C 154.635 216.465,154.582 219.930,154.582 228.400 M75.301 216.600 C 75.305 217.480,75.387 217.793,75.483 217.295 C 75.579 216.798,75.575 216.078,75.475 215.695 C 75.375 215.313,75.296 215.720,75.301 216.600 M186.528 228.000 C 186.528 229.430,186.601 230.015,186.689 229.300 C 186.778 228.585,186.778 227.415,186.689 226.700 C 186.601 225.985,186.528 226.570,186.528 228.000 M157.516 244.297 C 158.899 244.375,161.059 244.374,162.316 244.295 C 163.572 244.216,162.440 244.152,159.800 244.153 C 157.160 244.153,156.132 244.218,157.516 244.297 M211.516 244.297 C 212.899 244.375,215.059 244.374,216.316 244.295 C 217.572 244.216,216.440 244.152,213.800 244.153 C 211.160 244.153,210.132 244.218,211.516 244.297 M293.500 244.299 C 297.295 244.365,303.505 244.365,307.300 244.299 C 311.095 244.234,307.990 244.180,300.400 244.180 C 292.810 244.180,289.705 244.234,293.500 244.299 M314.797 248.118 L 314.994 251.800 315.114 248.437 C 315.180 246.588,315.092 244.931,314.917 244.755 C 314.743 244.580,314.689 246.093,314.797 248.118 M233.775 246.100 L 232.600 247.400 233.900 246.225 C 234.615 245.579,235.200 244.994,235.200 244.925 C 235.200 244.616,234.870 244.888,233.775 246.100 " stroke="none" fill="#7c7c7c" fill-rule="evenodd"></path><path id="path4" d="M136.313 108.695 C 137.476 108.776,139.276 108.776,140.313 108.693 C 141.351 108.611,140.400 108.545,138.200 108.546 C 136.000 108.547,135.151 108.614,136.313 108.695 M239.913 108.695 C 241.076 108.776,242.876 108.776,243.913 108.693 C 244.951 108.611,244.000 108.545,241.800 108.546 C 239.600 108.547,238.751 108.614,239.913 108.695 M84.849 110.009 C 85.454 111.800,85.795 112.148,85.428 110.600 C 85.271 109.940,84.971 109.224,84.761 109.009 C 84.550 108.794,84.590 109.244,84.849 110.009 M118.302 109.800 C 118.407 110.350,118.562 110.800,118.647 110.800 C 118.731 110.800,118.800 110.350,118.800 109.800 C 118.800 109.250,118.645 108.800,118.455 108.800 C 118.266 108.800,118.197 109.250,118.302 109.800 M176.833 108.944 C 176.925 109.024,177.810 109.196,178.800 109.327 C 180.002 109.486,180.334 109.447,179.800 109.210 C 179.036 108.872,176.486 108.643,176.833 108.944 M212.095 110.168 C 211.274 110.920,210.692 111.611,210.801 111.702 C 210.911 111.793,211.697 111.178,212.548 110.334 C 214.469 108.431,214.127 108.306,212.095 110.168 M220.216 109.551 C 220.084 109.964,217.433 112.778,214.325 115.803 C 209.074 120.912,208.709 121.363,209.192 122.135 C 209.477 122.593,212.170 126.035,215.174 129.784 C 218.179 133.533,220.944 137.045,221.319 137.589 C 221.693 138.133,222.000 138.403,221.999 138.189 C 221.999 137.975,219.547 134.740,216.551 131.000 C 213.556 127.260,210.648 123.606,210.090 122.880 L 209.074 121.560 214.937 115.650 C 218.162 112.399,220.800 109.528,220.800 109.270 C 220.800 108.556,220.483 108.708,220.216 109.551 M283.467 109.067 C 283.320 109.213,283.239 113.668,283.286 118.967 L 283.372 128.600 283.586 118.800 C 283.823 107.945,283.832 108.701,283.467 109.067 M295.867 109.067 C 295.500 109.434,295.529 113.509,295.900 113.738 C 296.065 113.840,296.200 112.771,296.200 111.362 C 296.200 109.953,296.185 108.800,296.167 108.800 C 296.148 108.800,296.013 108.920,295.867 109.067 M129.069 110.837 C 128.042 111.518,126.813 112.643,126.337 113.337 C 125.626 114.376,125.770 114.300,127.147 112.905 C 128.067 111.973,129.355 110.933,130.010 110.595 C 130.664 110.256,131.200 109.894,131.200 109.790 C 131.200 109.462,130.986 109.568,129.069 110.837 M146.830 110.733 C 148.507 111.796,149.597 112.882,151.330 115.217 C 152.053 116.190,152.054 116.187,151.378 115.000 C 150.142 112.831,146.603 109.600,145.462 109.600 C 145.232 109.600,145.847 110.110,146.830 110.733 M160.581 123.800 C 160.580 131.720,160.634 135.017,160.699 131.126 C 160.765 127.235,160.765 120.755,160.700 116.726 C 160.634 112.697,160.581 115.880,160.581 123.800 M194.181 123.800 C 194.180 131.720,194.234 135.017,194.299 131.126 C 194.365 127.235,194.365 120.755,194.300 116.726 C 194.234 112.697,194.181 115.880,194.181 123.800 M233.344 110.369 C 232.653 110.790,231.965 111.333,231.816 111.574 C 231.592 111.937,234.175 110.358,234.756 109.777 C 235.147 109.387,234.533 109.644,233.344 110.369 M250.437 110.737 C 251.424 111.363,252.921 112.668,253.764 113.637 C 254.608 114.607,255.110 115.040,254.881 114.600 C 254.109 113.121,249.991 109.600,249.033 109.600 C 248.819 109.600,249.451 110.112,250.437 110.737 M270.573 119.400 C 270.573 124.900,270.630 127.205,270.699 124.523 C 270.768 121.841,270.768 117.341,270.699 114.523 C 270.630 111.705,270.574 113.900,270.573 119.400 M102.406 110.633 C 102.409 111.055,102.595 111.670,102.818 112.000 C 103.115 112.438,103.152 112.276,102.956 111.400 C 102.627 109.929,102.398 109.610,102.406 110.633 M263.770 118.600 C 263.771 123.440,263.829 125.365,263.899 122.878 C 263.969 120.391,263.969 116.431,263.898 114.078 C 263.828 111.725,263.770 113.760,263.770 118.600 M78.644 111.400 C 78.973 112.871,79.202 113.190,79.194 112.167 C 79.191 111.745,79.005 111.130,78.782 110.800 C 78.485 110.362,78.448 110.524,78.644 111.400 M93.850 112.850 C 93.517 114.517,93.840 114.840,94.200 113.200 C 94.352 112.509,94.393 111.859,94.291 111.758 C 94.189 111.656,93.991 112.147,93.850 112.850 M85.668 113.000 C 85.662 113.440,85.811 114.160,86.000 114.600 C 86.438 115.619,86.438 114.568,86.000 113.200 C 85.743 112.396,85.677 112.357,85.668 113.000 M79.256 113.600 C 79.256 113.930,79.411 114.560,79.600 115.000 C 79.817 115.504,79.944 115.578,79.944 115.200 C 79.944 114.870,79.789 114.240,79.600 113.800 C 79.383 113.296,79.256 113.222,79.256 113.600 M103.268 113.800 C 103.262 114.240,103.411 114.960,103.600 115.400 C 104.038 116.419,104.038 115.368,103.600 114.000 C 103.343 113.196,103.277 113.157,103.268 113.800 M228.947 114.808 C 228.362 115.693,227.954 116.484,228.041 116.566 C 228.129 116.648,228.688 115.925,229.285 114.958 C 230.643 112.756,230.382 112.640,228.947 114.808 M110.849 114.200 C 110.816 114.640,110.696 115.450,110.583 116.000 L 110.377 117.000 110.806 116.019 C 111.042 115.479,111.161 114.669,111.072 114.219 C 110.913 113.421,110.907 113.421,110.849 114.200 M136.200 113.803 C 137.085 114.111,141.572 114.229,141.104 113.932 C 140.827 113.756,139.520 113.624,138.200 113.638 C 136.880 113.652,135.980 113.726,136.200 113.803 M239.800 113.803 C 240.685 114.111,245.172 114.229,244.704 113.932 C 244.427 113.756,243.120 113.624,241.800 113.638 C 240.480 113.652,239.580 113.726,239.800 113.803 M167.199 114.300 C 167.199 114.465,168.774 114.552,170.699 114.493 C 176.913 114.303,177.524 114.141,172.300 114.070 C 169.495 114.031,167.200 114.135,167.199 114.300 M304.712 125.873 C 304.786 133.714,304.972 137.926,305.261 138.273 C 305.741 138.852,310.645 139.013,311.488 138.478 C 312.034 138.131,312.445 113.999,311.906 114.000 C 311.744 114.000,311.564 119.445,311.506 126.100 L 311.400 138.200 308.400 138.200 L 305.400 138.200 305.294 126.100 C 305.236 119.445,305.056 114.000,304.894 114.000 C 304.732 114.000,304.650 119.343,304.712 125.873 M117.049 115.015 C 116.912 115.373,116.815 115.966,116.834 116.333 C 116.853 116.700,117.027 116.469,117.221 115.820 C 117.598 114.558,117.465 113.933,117.049 115.015 M142.856 115.166 C 143.375 115.587,143.877 115.855,143.971 115.761 C 144.176 115.557,142.744 114.431,142.256 114.413 C 142.066 114.406,142.336 114.745,142.856 115.166 M178.546 115.229 C 179.126 115.685,179.614 116.360,179.632 116.729 C 179.653 117.189,179.730 117.234,179.874 116.871 C 180.095 116.319,178.543 114.400,177.876 114.400 C 177.665 114.400,177.966 114.773,178.546 115.229 M245.638 114.500 C 245.732 114.555,246.519 115.230,247.387 116.000 C 248.255 116.770,248.703 117.042,248.383 116.605 C 247.623 115.570,246.298 114.430,245.833 114.413 C 245.632 114.406,245.544 114.445,245.638 114.500 M93.246 115.667 C 93.221 116.034,93.096 116.664,92.970 117.067 C 92.752 117.762,92.763 117.763,93.197 117.087 C 93.448 116.696,93.573 116.066,93.473 115.687 C 93.311 115.068,93.288 115.066,93.246 115.667 M235.365 116.611 C 234.773 117.387,234.359 118.087,234.444 118.167 C 234.530 118.246,235.093 117.612,235.696 116.756 C 237.065 114.814,236.818 114.706,235.365 116.611 M186.524 117.800 C 186.526 119.120,186.601 119.612,186.690 118.893 C 186.779 118.174,186.777 117.094,186.686 116.493 C 186.595 115.892,186.522 116.480,186.524 117.800 M86.468 116.600 C 86.462 117.040,86.611 117.760,86.800 118.200 C 87.238 119.219,87.238 118.168,86.800 116.800 C 86.543 115.996,86.477 115.957,86.468 116.600 M80.056 116.800 C 80.056 117.130,80.211 117.760,80.400 118.200 C 80.617 118.704,80.744 118.778,80.744 118.400 C 80.744 118.070,80.589 117.440,80.400 117.000 C 80.183 116.496,80.056 116.422,80.056 116.800 M104.068 117.000 C 104.062 117.440,104.211 118.160,104.400 118.600 C 104.838 119.619,104.838 118.568,104.400 117.200 C 104.143 116.396,104.077 116.357,104.068 117.000 M98.242 117.835 C 97.908 118.704,97.938 118.885,98.370 118.619 C 98.573 118.493,98.822 118.707,98.923 119.095 C 99.041 119.544,99.124 119.410,99.154 118.724 C 99.207 117.488,98.602 116.898,98.242 117.835 M227.429 118.229 C 227.281 118.815,227.238 119.372,227.332 119.466 C 227.427 119.560,227.624 119.158,227.771 118.571 C 227.919 117.985,227.962 117.428,227.868 117.334 C 227.773 117.240,227.576 117.642,227.429 118.229 M109.850 118.850 C 109.517 120.517,109.840 120.840,110.200 119.200 C 110.352 118.509,110.393 117.859,110.291 117.758 C 110.189 117.656,109.991 118.147,109.850 118.850 M116.249 118.215 C 116.112 118.573,116.015 119.166,116.034 119.533 C 116.053 119.900,116.227 119.669,116.421 119.020 C 116.798 117.758,116.665 117.133,116.249 118.215 M256.056 118.000 C 256.056 118.330,256.211 118.960,256.400 119.400 C 256.617 119.904,256.744 119.978,256.744 119.600 C 256.744 119.270,256.589 118.640,256.400 118.200 C 256.183 117.696,256.056 117.622,256.056 118.000 M92.250 119.650 C 91.917 121.317,92.240 121.640,92.600 120.000 C 92.752 119.309,92.793 118.659,92.691 118.558 C 92.589 118.456,92.391 118.947,92.250 119.650 M123.457 119.900 C 123.153 121.737,123.204 126.178,123.547 127.777 C 123.686 128.425,123.800 126.580,123.800 123.677 C 123.800 117.790,123.802 117.811,123.457 119.900 M153.109 122.200 C 153.220 124.180,153.376 125.875,153.455 125.967 C 153.722 126.273,153.509 121.016,153.206 119.800 C 153.042 119.140,152.998 120.220,153.109 122.200 M179.443 119.770 C 179.035 121.398,177.798 121.783,172.200 122.023 L 167.000 122.246 172.000 122.321 C 176.318 122.387,177.173 122.292,178.264 121.626 C 179.423 120.920,180.339 119.406,179.885 118.951 C 179.781 118.848,179.582 119.216,179.443 119.770 M249.800 123.600 C 249.800 126.004,249.922 127.662,250.072 127.285 C 250.221 126.908,250.344 125.250,250.344 123.600 C 250.344 121.950,250.221 120.292,250.072 119.915 C 249.922 119.538,249.800 121.196,249.800 123.600 M81.044 120.600 C 81.373 122.071,81.602 122.390,81.594 121.367 C 81.591 120.945,81.405 120.330,81.182 120.000 C 80.885 119.562,80.848 119.724,81.044 120.600 M87.268 120.200 C 87.262 120.640,87.411 121.360,87.600 121.800 C 88.038 122.819,88.038 121.768,87.600 120.400 C 87.343 119.596,87.277 119.557,87.268 120.200 M104.868 120.600 C 104.862 121.040,105.011 121.760,105.200 122.200 C 105.638 123.219,105.638 122.168,105.200 120.800 C 104.943 119.996,104.877 119.957,104.868 120.600 M99.268 120.800 C 99.288 121.839,99.918 123.546,99.932 122.600 C 99.938 122.160,99.789 121.440,99.600 121.000 C 99.389 120.510,99.261 120.432,99.268 120.800 M115.429 121.429 C 115.281 122.015,115.238 122.572,115.332 122.666 C 115.427 122.760,115.624 122.358,115.771 121.771 C 115.919 121.185,115.962 120.628,115.868 120.534 C 115.773 120.440,115.576 120.842,115.429 121.429 M129.818 122.218 C 129.665 123.239,129.622 124.155,129.722 124.255 C 129.822 124.355,130.029 123.602,130.182 122.582 C 130.335 121.561,130.378 120.645,130.278 120.545 C 130.178 120.445,129.971 121.198,129.818 122.218 M226.940 123.600 C 226.940 125.470,227.009 126.235,227.093 125.300 C 227.177 124.365,227.177 122.835,227.093 121.900 C 227.009 120.965,226.940 121.730,226.940 123.600 M97.000 122.400 C 96.848 123.091,96.807 123.741,96.909 123.842 C 97.011 123.944,97.209 123.453,97.350 122.750 C 97.683 121.083,97.360 120.760,97.000 122.400 M109.050 122.450 C 108.717 124.117,109.040 124.440,109.400 122.800 C 109.552 122.109,109.593 121.459,109.491 121.358 C 109.389 121.256,109.191 121.747,109.050 122.450 M146.528 123.600 C 146.528 125.030,146.601 125.615,146.689 124.900 C 146.778 124.185,146.778 123.015,146.689 122.300 C 146.601 121.585,146.528 122.170,146.528 123.600 M256.928 123.600 C 256.928 125.030,257.001 125.615,257.089 124.900 C 257.178 124.185,257.178 123.015,257.089 122.300 C 257.001 121.585,256.928 122.170,256.928 123.600 M91.450 123.250 C 91.117 124.917,91.440 125.240,91.800 123.600 C 91.952 122.909,91.993 122.259,91.891 122.158 C 91.789 122.056,91.591 122.547,91.450 123.250 M184.175 123.649 C 183.529 124.336,182.415 125.149,181.700 125.455 C 180.229 126.084,180.145 126.328,181.022 127.424 C 181.623 128.174,181.630 128.170,181.222 127.326 C 180.656 126.154,180.666 126.123,181.700 125.841 C 182.597 125.596,184.108 124.390,185.149 123.087 C 186.056 121.952,185.433 122.312,184.175 123.649 M81.844 123.800 C 82.173 125.271,82.402 125.590,82.394 124.567 C 82.391 124.145,82.205 123.530,81.982 123.200 C 81.685 122.762,81.648 122.924,81.844 123.800 M88.068 123.800 C 88.062 124.240,88.211 124.960,88.400 125.400 C 88.838 126.419,88.838 125.368,88.400 124.000 C 88.143 123.196,88.077 123.157,88.068 123.800 M105.668 123.800 C 105.662 124.240,105.811 124.960,106.000 125.400 C 106.438 126.419,106.438 125.368,106.000 124.000 C 105.743 123.196,105.677 123.157,105.668 123.800 M100.244 125.000 C 100.573 126.471,100.802 126.790,100.794 125.767 C 100.791 125.345,100.605 124.730,100.382 124.400 C 100.085 123.962,100.048 124.124,100.244 125.000 M96.200 126.000 C 96.048 126.691,96.007 127.341,96.109 127.442 C 96.211 127.544,96.409 127.053,96.550 126.350 C 96.883 124.683,96.560 124.360,96.200 126.000 M108.250 126.050 C 107.917 127.717,108.240 128.040,108.600 126.400 C 108.752 125.709,108.793 125.059,108.691 124.958 C 108.589 124.856,108.391 125.347,108.250 126.050 M82.468 126.000 C 82.488 127.039,83.118 128.746,83.132 127.800 C 83.138 127.360,82.989 126.640,82.800 126.200 C 82.589 125.710,82.461 125.632,82.468 126.000 M90.650 126.850 C 90.317 128.517,90.640 128.840,91.000 127.200 C 91.152 126.509,91.193 125.859,91.091 125.758 C 90.989 125.656,90.791 126.147,90.650 126.850 M201.985 126.761 C 201.223 127.400,200.690 127.987,200.800 128.066 C 200.910 128.145,201.624 127.623,202.386 126.905 C 204.105 125.287,203.852 125.196,201.985 126.761 M88.868 127.400 C 88.862 127.840,89.011 128.560,89.200 129.000 C 89.638 130.019,89.638 128.968,89.200 127.600 C 88.943 126.796,88.877 126.757,88.868 127.400 M106.432 127.474 C 106.386 128.745,107.132 130.489,107.599 130.200 C 107.820 130.064,107.987 129.558,107.972 129.076 C 107.945 128.234,107.931 128.231,107.618 129.000 C 107.325 129.718,107.263 129.677,107.011 128.600 C 106.576 126.744,106.466 126.528,106.432 127.474 M113.849 127.415 C 113.712 127.773,113.615 128.366,113.634 128.733 C 113.653 129.100,113.827 128.869,114.021 128.220 C 114.398 126.958,114.265 126.333,113.849 127.415 M146.046 127.320 C 146.021 127.716,145.725 128.571,145.390 129.220 C 145.054 129.869,144.869 130.400,144.979 130.400 C 145.410 130.400,146.438 127.909,146.271 127.273 C 146.114 126.681,146.087 126.687,146.046 127.320 M289.714 128.600 C 289.717 129.700,289.795 130.103,289.887 129.495 C 289.979 128.886,289.977 127.986,289.882 127.495 C 289.787 127.003,289.711 127.500,289.714 128.600 M100.868 127.600 C 100.888 128.639,101.518 130.346,101.532 129.400 C 101.538 128.960,101.389 128.240,101.200 127.800 C 100.989 127.310,100.861 127.232,100.868 127.600 M167.232 127.884 C 167.250 128.304,167.347 128.393,167.465 128.100 C 167.864 127.112,173.785 127.445,174.583 128.500 C 175.261 129.397,175.262 129.396,174.685 128.400 C 173.910 127.064,167.175 126.598,167.232 127.884 M206.575 128.532 C 207.191 129.339,207.776 130.000,207.875 130.000 C 208.153 130.000,206.421 127.660,205.909 127.344 C 205.659 127.189,205.959 127.724,206.575 128.532 M256.229 128.229 C 256.081 128.815,256.038 129.372,256.132 129.466 C 256.227 129.560,256.424 129.158,256.571 128.571 C 256.719 127.985,256.762 127.428,256.668 127.334 C 256.573 127.240,256.376 127.642,256.229 128.229 M227.256 128.000 C 227.256 128.330,227.411 128.960,227.600 129.400 C 227.817 129.904,227.944 129.978,227.944 129.600 C 227.944 129.270,227.789 128.640,227.600 128.200 C 227.383 127.696,227.256 127.622,227.256 128.000 M83.256 129.200 C 83.256 129.530,83.411 130.160,83.600 130.600 C 83.817 131.104,83.944 131.178,83.944 130.800 C 83.944 130.470,83.789 129.840,83.600 129.400 C 83.383 128.896,83.256 128.822,83.256 129.200 M151.798 130.662 C 151.124 132.425,148.103 135.903,146.200 137.106 C 145.760 137.384,145.949 137.353,146.621 137.036 C 148.919 135.954,153.539 129.806,152.691 128.958 C 152.595 128.861,152.193 129.628,151.798 130.662 M234.400 129.002 C 234.400 130.240,238.216 133.607,239.600 133.590 C 239.930 133.586,239.446 133.240,238.525 132.822 C 237.549 132.379,236.338 131.356,235.625 130.371 C 234.951 129.441,234.400 128.825,234.400 129.002 M89.888 129.733 C 89.442 130.866,89.515 131.445,90.038 130.922 C 90.278 130.682,90.408 130.151,90.326 129.742 C 90.182 129.026,90.166 129.026,89.888 129.733 M124.000 129.346 C 124.000 129.822,125.148 132.400,125.359 132.400 C 125.469 132.400,125.279 131.725,124.938 130.900 C 124.296 129.351,124.000 128.861,124.000 129.346 M113.000 130.800 C 112.848 131.491,112.807 132.141,112.909 132.242 C 113.011 132.344,113.209 131.853,113.350 131.150 C 113.683 129.483,113.360 129.160,113.000 130.800 M131.200 129.891 C 131.200 130.796,134.907 133.611,136.074 133.591 C 136.363 133.586,135.873 133.252,134.983 132.848 C 134.094 132.444,132.879 131.534,132.283 130.826 C 131.688 130.118,131.200 129.697,131.200 129.891 M248.036 130.837 C 247.533 131.518,246.374 132.414,245.460 132.828 C 244.547 133.243,244.037 133.586,244.326 133.591 C 245.497 133.611,248.078 131.733,248.851 130.300 C 249.436 129.214,249.045 129.472,248.036 130.837 M264.240 130.800 C 264.619 133.029,268.000 138.120,268.000 136.462 C 268.000 136.208,267.832 136.000,267.627 136.000 C 267.018 136.000,265.490 133.595,264.720 131.425 C 264.167 129.865,264.057 129.722,264.240 130.800 M208.406 130.633 C 208.409 130.835,209.056 131.720,209.844 132.600 L 211.276 134.200 209.961 132.400 C 209.237 131.410,208.590 130.525,208.523 130.433 C 208.455 130.342,208.403 130.432,208.406 130.633 M228.016 130.631 C 227.993 131.242,230.212 134.512,231.272 135.430 C 231.760 135.854,231.517 135.390,230.732 134.400 C 229.946 133.410,229.017 132.060,228.668 131.400 C 228.318 130.740,228.025 130.394,228.016 130.631 M143.949 131.463 C 143.647 131.828,142.680 132.454,141.800 132.855 C 140.920 133.255,140.434 133.586,140.720 133.591 C 141.508 133.605,143.309 132.585,144.163 131.641 C 144.582 131.178,144.828 130.800,144.711 130.800 C 144.594 130.800,144.251 131.099,143.949 131.463 M176.830 132.200 C 177.324 133.080,177.900 133.980,178.110 134.200 C 178.709 134.828,177.339 132.294,176.596 131.400 C 176.230 130.960,176.335 131.320,176.830 132.200 M271.518 131.447 C 272.083 132.502,273.894 133.713,274.524 133.457 C 274.791 133.348,274.706 133.249,274.331 133.232 C 273.963 133.214,273.078 132.617,272.365 131.904 C 271.527 131.065,271.228 130.904,271.518 131.447 M94.600 132.800 C 94.448 133.491,94.407 134.141,94.509 134.242 C 94.611 134.344,94.809 133.853,94.950 133.150 C 95.283 131.483,94.960 131.160,94.600 132.800 M84.244 133.000 C 84.573 134.471,84.802 134.790,84.794 133.767 C 84.791 133.345,84.605 132.730,84.382 132.400 C 84.085 131.962,84.048 132.124,84.244 133.000 M112.229 133.829 C 112.081 134.415,112.038 134.972,112.132 135.066 C 112.227 135.160,112.424 134.758,112.571 134.171 C 112.719 133.585,112.762 133.028,112.668 132.934 C 112.573 132.840,112.376 133.242,112.229 133.829 M185.228 134.053 C 186.108 135.696,188.000 138.554,188.000 138.239 C 188.000 137.863,185.158 133.200,184.929 133.200 C 184.843 133.200,184.977 133.584,185.228 134.053 M102.468 134.400 C 102.488 135.439,103.118 137.146,103.132 136.200 C 103.138 135.760,102.989 135.040,102.800 134.600 C 102.589 134.110,102.461 134.032,102.468 134.400 M127.282 135.021 C 127.877 135.673,128.957 136.528,129.682 136.921 C 130.951 137.608,130.963 137.608,130.009 136.917 C 129.465 136.523,128.385 135.668,127.609 135.018 L 126.200 133.836 127.282 135.021 M211.824 135.182 C 212.791 136.589,214.399 138.438,214.388 138.131 C 214.381 137.949,213.706 137.072,212.888 136.182 C 212.070 135.293,211.591 134.843,211.824 135.182 M285.865 136.026 C 284.801 136.892,284.081 137.600,284.265 137.599 C 284.449 137.598,285.410 136.886,286.400 136.016 C 288.718 133.979,288.373 133.985,285.865 136.026 M85.044 136.200 C 85.373 137.671,85.602 137.990,85.594 136.967 C 85.591 136.545,85.405 135.930,85.182 135.600 C 84.885 135.162,84.848 135.324,85.044 136.200 M93.726 136.700 L 93.373 138.200 89.786 138.424 L 86.200 138.649 89.651 138.724 C 93.422 138.807,93.724 138.659,94.186 136.500 C 94.574 134.684,94.158 134.865,93.726 136.700 M250.818 136.250 C 248.936 137.586,248.771 137.818,250.229 137.077 C 250.905 136.734,251.692 136.171,251.978 135.826 C 252.660 135.005,252.477 135.072,250.818 136.250 M179.560 136.600 C 180.234 137.905,180.788 138.628,180.785 138.200 C 180.783 137.980,180.414 137.350,179.964 136.800 C 179.421 136.136,179.285 136.069,179.560 136.600 M268.574 137.158 C 268.697 137.358,269.380 137.724,270.090 137.971 C 271.588 138.494,271.135 137.979,269.475 137.273 C 268.856 137.009,268.450 136.958,268.574 137.158 M103.200 137.912 C 103.200 138.616,104.660 138.855,108.005 138.699 L 111.000 138.559 107.580 138.479 C 105.556 138.432,103.964 138.204,103.680 137.920 C 103.315 137.555,103.200 137.553,103.200 137.912 M164.000 138.400 L 161.000 138.656 163.876 138.728 C 165.458 138.768,166.864 138.620,167.000 138.400 C 167.136 138.180,167.192 138.032,167.124 138.072 C 167.056 138.112,165.650 138.259,164.000 138.400 M197.600 138.400 L 194.600 138.656 197.476 138.728 C 199.058 138.768,200.464 138.620,200.600 138.400 C 200.736 138.180,200.792 138.032,200.724 138.072 C 200.656 138.112,199.250 138.259,197.600 138.400 M134.622 138.853 C 136.172 139.185,140.754 139.190,141.921 138.860 C 142.427 138.717,140.727 138.600,138.143 138.600 C 135.559 138.600,133.975 138.714,134.622 138.853 M182.711 138.693 C 183.651 138.778,185.091 138.777,185.911 138.691 C 186.730 138.605,185.960 138.536,184.200 138.537 C 182.440 138.539,181.770 138.609,182.711 138.693 M216.300 138.693 C 217.235 138.777,218.765 138.777,219.700 138.693 C 220.635 138.609,219.870 138.540,218.000 138.540 C 216.130 138.540,215.365 138.609,216.300 138.693 M242.000 138.800 L 239.000 139.056 241.800 139.088 C 243.340 139.106,245.050 138.976,245.600 138.800 C 246.778 138.423,246.425 138.423,242.000 138.800 M276.800 138.800 L 273.800 139.056 276.600 139.081 C 278.140 139.094,279.940 138.968,280.600 138.800 C 282.093 138.420,281.253 138.420,276.800 138.800 M340.600 204.000 C 340.160 204.189,339.257 204.356,338.594 204.372 C 336.437 204.422,330.800 206.941,330.800 207.854 C 330.800 207.964,331.295 207.708,331.900 207.284 C 336.316 204.190,347.261 203.203,354.400 205.255 C 358.620 206.468,361.621 209.110,363.201 213.002 C 364.330 215.783,364.122 216.286,361.723 216.577 C 360.665 216.705,358.634 217.000,357.209 217.232 C 355.784 217.464,354.566 217.506,354.502 217.327 C 352.627 212.041,344.123 209.594,338.715 212.785 C 333.281 215.991,336.293 221.036,344.900 223.143 C 346.825 223.614,349.975 224.382,351.900 224.849 C 358.229 226.383,362.098 228.741,363.963 232.200 C 364.485 233.168,364.721 233.405,364.560 232.800 C 363.655 229.387,359.514 226.372,353.600 224.818 C 352.610 224.559,351.247 224.178,350.572 223.973 C 349.896 223.768,349.009 223.600,348.600 223.600 C 348.191 223.600,347.304 223.432,346.628 223.227 C 345.953 223.022,344.590 222.638,343.600 222.373 C 338.016 220.880,337.029 220.062,337.029 216.924 C 337.029 210.616,350.004 209.878,353.326 215.997 C 354.434 218.037,354.324 218.016,360.248 217.302 C 364.908 216.741,365.254 216.233,363.521 212.496 C 361.238 207.572,358.164 205.516,350.869 204.033 C 348.371 203.525,341.754 203.504,340.600 204.000 M36.497 204.723 C 36.100 204.982,36.015 210.035,36.097 228.626 L 36.200 252.200 50.842 252.305 C 63.422 252.395,65.676 252.322,66.842 251.785 C 68.122 251.196,68.131 251.179,67.000 251.480 C 66.340 251.656,59.230 251.800,51.200 251.800 L 36.600 251.800 36.600 228.400 L 36.600 205.000 48.745 204.894 C 60.578 204.791,62.857 204.950,67.600 206.209 L 68.600 206.474 67.550 205.887 C 66.972 205.563,65.802 205.164,64.950 204.999 C 62.759 204.575,37.106 204.326,36.497 204.723 M89.969 205.257 C 89.188 206.717,89.723 238.906,90.566 241.137 C 93.044 247.701,97.258 251.250,104.400 252.791 C 107.750 253.513,116.932 253.038,119.400 252.014 C 125.940 249.300,128.746 246.526,131.148 240.400 C 131.920 238.433,132.329 205.879,131.594 204.992 C 130.940 204.205,121.827 204.123,121.324 204.900 C 121.146 205.175,120.908 212.690,120.797 221.600 C 120.545 241.625,120.686 241.169,113.881 243.944 C 109.903 245.566,103.774 243.383,101.942 239.692 C 101.010 237.815,101.001 237.670,100.872 221.606 C 100.788 211.068,100.596 205.236,100.322 204.906 C 99.501 203.917,90.524 204.222,89.969 205.257 M276.497 204.729 C 276.100 204.983,276.015 210.032,276.097 228.626 L 276.200 252.200 295.800 252.200 L 315.400 252.200 315.516 248.460 C 315.680 243.149,317.050 243.600,300.751 243.600 L 286.800 243.600 286.800 238.006 L 286.800 232.411 299.300 232.306 L 311.800 232.200 311.915 228.233 C 312.062 223.202,313.220 223.613,298.900 223.606 L 286.800 223.600 286.800 218.405 L 286.800 213.211 300.300 213.105 L 313.800 213.000 313.800 208.800 L 313.800 204.600 295.400 204.504 C 285.280 204.451,276.774 204.552,276.497 204.729 M100.148 205.700 C 100.281 206.195,100.399 213.170,100.412 221.200 C 100.425 229.230,100.586 236.584,100.771 237.542 C 102.407 246.009,115.976 247.488,119.981 239.636 C 121.250 237.150,121.600 232.548,121.600 218.371 L 121.600 204.800 126.382 204.800 L 131.164 204.800 131.427 206.203 C 132.155 210.084,131.338 238.123,130.420 240.780 C 125.307 255.572,98.926 257.498,92.134 243.576 C 90.437 240.098,90.400 239.632,90.400 221.940 L 90.400 204.800 95.153 204.800 C 99.745 204.800,99.915 204.831,100.148 205.700 M144.584 205.300 C 144.478 205.575,144.439 216.240,144.496 229.000 L 144.600 252.200 144.800 228.500 C 144.910 215.465,144.949 204.800,144.887 204.800 C 144.826 204.800,144.689 205.025,144.584 205.300 M166.200 205.223 C 167.080 205.405,168.340 205.542,169.000 205.527 C 169.900 205.507,169.750 205.420,168.400 205.180 C 165.986 204.750,164.094 204.787,166.200 205.223 M198.197 205.700 C 198.077 206.195,198.030 216.320,198.093 228.200 L 198.207 249.800 198.304 227.780 C 198.376 211.297,198.521 205.639,198.880 205.280 C 199.245 204.915,199.247 204.800,198.888 204.800 C 198.628 204.800,198.317 205.205,198.197 205.700 M220.200 205.223 C 221.080 205.405,222.340 205.542,223.000 205.527 C 223.900 205.507,223.750 205.420,222.400 205.180 C 219.986 204.750,218.094 204.787,220.200 205.223 M252.584 205.300 C 252.478 205.575,252.439 216.150,252.496 228.800 L 252.600 251.800 252.800 228.300 C 252.910 215.375,252.949 204.800,252.887 204.800 C 252.826 204.800,252.689 205.025,252.584 205.300 M262.701 220.100 C 262.756 228.515,262.850 239.180,262.909 243.800 C 262.968 248.420,263.058 241.535,263.108 228.500 C 263.159 215.465,263.065 204.800,262.900 204.800 C 262.735 204.800,262.645 211.685,262.701 220.100 M313.514 208.895 L 313.629 212.789 300.114 212.895 L 286.600 213.000 286.600 218.600 L 286.600 224.200 299.000 224.400 L 311.400 224.600 311.515 228.294 L 311.630 231.989 299.115 232.094 L 286.600 232.200 286.489 238.100 L 286.379 244.000 300.113 244.000 C 316.423 244.000,315.282 243.665,315.118 248.408 L 315.000 251.800 295.800 251.800 L 276.600 251.800 276.496 228.800 C 276.439 216.150,276.479 205.573,276.585 205.296 C 276.737 204.899,280.654 204.814,295.089 204.896 L 313.400 205.000 313.514 208.895 M170.800 205.994 C 171.130 206.211,171.701 206.391,172.068 206.394 C 173.536 206.407,178.617 209.431,180.769 211.571 C 189.592 220.346,188.333 240.468,178.533 247.322 C 175.257 249.614,175.283 249.590,176.358 249.318 C 179.485 248.529,184.718 241.429,186.445 235.636 C 187.165 233.218,187.173 223.176,186.457 220.800 C 184.642 214.781,180.494 209.636,175.600 207.333 C 173.068 206.141,169.511 205.149,170.800 205.994 M225.400 206.038 C 228.271 207.065,231.840 208.943,233.493 210.298 C 243.988 218.897,242.878 240.763,231.580 248.013 C 229.601 249.283,229.065 250.129,230.841 249.178 C 233.283 247.871,238.800 241.441,238.800 239.902 C 238.800 239.604,238.949 239.189,239.130 238.980 C 239.458 238.603,239.929 237.084,240.801 233.591 C 241.501 230.789,241.014 221.872,240.026 219.400 C 237.125 212.140,231.512 206.868,225.600 205.850 L 224.200 205.609 225.400 206.038 M72.597 209.201 C 74.493 211.418,74.520 211.442,74.086 210.600 C 73.859 210.160,73.162 209.351,72.537 208.801 L 71.400 207.803 72.597 209.201 M329.402 208.798 C 329.003 209.239,328.807 209.600,328.967 209.600 C 329.388 209.600,330.528 208.395,330.312 208.179 C 330.211 208.078,329.802 208.356,329.402 208.798 M46.597 212.865 C 46.475 213.182,46.426 215.773,46.487 218.621 L 46.600 223.800 52.000 223.929 C 58.675 224.088,62.366 223.525,63.758 222.133 C 66.450 219.441,65.897 215.038,62.658 213.368 C 60.850 212.437,46.928 212.000,46.597 212.865 M154.800 228.400 L 154.800 244.000 160.567 244.000 C 171.002 244.000,174.896 240.761,176.390 230.836 C 178.095 219.516,171.875 212.800,159.689 212.800 L 154.800 212.800 154.800 228.400 M208.800 228.400 L 208.800 244.000 214.589 244.000 C 225.787 244.000,230.400 239.388,230.400 228.194 C 230.400 217.466,225.335 212.800,213.689 212.800 L 208.800 212.800 208.800 228.400 M326.629 213.829 C 326.481 214.415,326.438 214.972,326.532 215.066 C 326.627 215.160,326.824 214.758,326.971 214.171 C 327.119 213.585,327.162 213.028,327.068 212.934 C 326.973 212.840,326.776 213.242,326.629 213.829 M62.794 214.100 C 64.680 215.394,65.465 217.586,64.782 219.653 C 63.778 222.697,60.939 223.600,52.369 223.600 L 46.800 223.600 46.800 218.400 L 46.800 213.200 54.141 213.200 C 61.098 213.200,61.550 213.247,62.794 214.100 M165.754 213.651 C 172.209 215.418,174.815 218.444,175.793 225.308 C 177.476 237.129,172.168 243.600,160.788 243.600 L 155.200 243.600 155.200 228.400 L 155.200 213.200 159.654 213.200 C 162.103 213.200,164.848 213.403,165.754 213.651 M219.754 213.645 C 229.178 216.191,232.964 226.488,228.268 236.800 C 225.936 241.921,222.607 243.600,214.788 243.600 L 209.200 243.600 209.200 228.400 L 209.200 213.200 213.654 213.200 C 216.103 213.200,218.848 213.400,219.754 213.645 M75.433 217.633 C 75.283 218.766,75.241 219.774,75.339 219.872 C 75.437 219.971,75.645 219.128,75.800 218.000 C 75.955 216.872,75.998 215.864,75.894 215.761 C 75.791 215.658,75.584 216.500,75.433 217.633 M73.119 223.755 C 72.524 224.501,71.219 225.507,70.219 225.991 C 69.218 226.475,68.400 227.023,68.400 227.209 C 68.400 227.633,69.978 228.155,70.297 227.837 C 70.427 227.706,70.233 227.600,69.867 227.600 C 68.910 227.600,69.045 226.999,70.111 226.513 C 71.352 225.948,73.529 224.080,74.023 223.157 C 74.620 222.042,74.336 222.230,73.119 223.755 M331.200 227.620 C 333.580 229.700,336.572 230.749,346.000 232.808 C 352.872 234.308,354.800 235.702,354.800 239.172 C 354.800 246.594,336.560 246.531,334.784 239.103 C 334.608 238.366,334.277 238.191,332.984 238.149 C 331.699 238.108,331.644 238.131,332.693 238.274 C 333.688 238.409,334.134 238.762,334.630 239.808 C 338.234 247.402,355.216 246.938,355.319 239.242 C 355.357 236.391,353.642 234.371,350.400 233.448 C 348.100 232.793,345.251 232.088,343.000 231.617 C 341.680 231.340,340.150 230.972,339.600 230.798 C 339.050 230.624,337.552 230.173,336.272 229.795 C 334.991 229.417,333.011 228.498,331.872 227.752 C 329.806 226.401,329.804 226.401,331.200 227.620 M46.577 231.717 C 46.468 232.001,46.428 235.016,46.489 238.417 L 46.600 244.600 52.200 244.722 C 63.079 244.958,68.581 243.126,67.882 239.499 L 67.709 238.600 67.654 239.500 C 67.446 242.940,64.137 243.991,53.500 243.997 L 46.800 244.000 46.800 237.800 L 46.800 231.600 52.793 231.600 C 62.576 231.600,67.484 233.097,67.646 236.131 C 67.682 236.804,67.734 236.843,67.875 236.302 C 68.351 234.485,65.628 232.432,61.680 231.630 C 58.532 230.991,46.829 231.058,46.577 231.717 M365.000 238.657 C 365.000 241.241,365.114 242.825,365.253 242.178 C 365.585 240.628,365.590 236.046,365.260 234.879 C 365.117 234.373,365.000 236.073,365.000 238.657 M77.857 235.400 C 78.270 236.921,78.278 240.633,77.872 242.200 C 77.573 243.352,77.585 243.347,78.180 242.054 C 78.984 240.308,78.976 236.810,78.165 235.346 L 77.531 234.200 77.857 235.400 M324.443 239.748 C 324.119 240.139,324.107 240.571,324.403 241.248 C 324.808 242.177,324.813 242.174,324.607 241.121 C 324.457 240.357,324.600 239.923,325.098 239.633 C 325.484 239.408,325.597 239.219,325.349 239.212 C 325.101 239.205,324.693 239.447,324.443 239.748 M76.883 244.577 C 76.638 245.116,75.760 246.332,74.933 247.279 C 73.553 248.858,73.537 248.901,74.743 247.800 C 76.130 246.533,77.816 244.082,77.511 243.777 C 77.411 243.678,77.129 244.038,76.883 244.577 M364.074 244.598 C 361.755 249.687,354.620 252.801,345.280 252.800 C 337.364 252.799,332.699 251.276,328.200 247.224 C 326.402 245.605,326.341 245.578,327.600 246.952 C 330.262 249.858,333.315 251.564,337.800 252.653 C 341.029 253.437,352.855 252.887,355.800 251.817 C 360.234 250.205,365.959 245.025,364.699 243.766 C 364.606 243.673,364.325 244.047,364.074 244.598 M71.900 249.429 C 70.405 250.240,70.496 250.578,72.000 249.800 C 72.660 249.459,73.200 249.094,73.200 248.990 C 73.200 248.732,73.157 248.747,71.900 249.429 M227.000 250.429 C 226.120 250.852,225.850 251.086,226.400 250.949 C 227.533 250.667,229.612 249.625,229.000 249.646 C 228.780 249.653,227.880 250.006,227.000 250.429 M222.800 251.600 C 221.996 251.857,221.957 251.923,222.600 251.932 C 223.040 251.938,223.760 251.789,224.200 251.600 C 225.219 251.162,224.168 251.162,222.800 251.600 M150.500 252.299 C 153.525 252.367,158.475 252.367,161.500 252.299 C 164.525 252.231,162.050 252.175,156.000 252.175 C 149.950 252.175,147.475 252.231,150.500 252.299 M204.500 252.299 C 207.525 252.367,212.475 252.367,215.500 252.299 C 218.525 252.231,216.050 252.175,210.000 252.175 C 203.950 252.175,201.475 252.231,204.500 252.299 M255.516 252.297 C 256.899 252.375,259.059 252.374,260.316 252.295 C 261.572 252.216,260.440 252.152,257.800 252.153 C 255.160 252.153,254.132 252.218,255.516 252.297 " stroke="none" fill="#a2a2a2" fill-rule="evenodd"></path></g></svg>